<?xml version="1.0" encoding="utf-8" standalone="no"?>
<!DOCTYPE svg PUBLIC "-//W3C//DTD SVG 1.1//EN"
  "http://www.w3.org/Graphics/SVG/1.1/DTD/svg11.dtd">
<svg xmlns:xlink="http://www.w3.org/1999/xlink" width="856.70375pt" height="567.27625pt" viewBox="0 0 856.70375 567.27625" xmlns="http://www.w3.org/2000/svg" version="1.1">
 <metadata>
  <rdf:RDF xmlns:dc="http://purl.org/dc/elements/1.1/" xmlns:cc="http://creativecommons.org/ns#" xmlns:rdf="http://www.w3.org/1999/02/22-rdf-syntax-ns#">
   <cc:Work>
    <dc:type rdf:resource="http://purl.org/dc/dcmitype/StillImage"/>
    <dc:date>2025-10-25T20:55:34.999468</dc:date>
    <dc:format>image/svg+xml</dc:format>
    <dc:creator>
     <cc:Agent>
      <dc:title>Matplotlib v3.10.0, https://matplotlib.org/</dc:title>
     </cc:Agent>
    </dc:creator>
   </cc:Work>
  </rdf:RDF>
 </metadata>
 <defs>
  <style type="text/css">*{stroke-linejoin: round; stroke-linecap: butt}</style>
 </defs>
 <g id="figure_1">
  <g id="patch_1">
   <path d="M 0 567.27625 
L 856.70375 567.27625 
L 856.70375 0 
L 0 0 
z
" style="fill: #ffffff"/>
  </g>
  <g id="axes_1">
   <g id="patch_2">
    <path d="M 282.565077 68.976 
C 266.924274 68.976 251.564286 73.158076 238.082389 81.087335 
C 224.600492 89.016594 213.480793 100.408314 205.879623 114.077876 
L 282.565077 156.72 
z
" style="fill: #2e86ab"/>
   </g>
   <g id="patch_3">
    <path d="M 205.879623 114.077878 
C 202.440471 120.262678 199.762124 126.840898 197.903029 133.669022 
C 196.043933 140.497145 195.017697 147.525162 194.846698 154.599783 
L 282.565077 156.72 
z
" style="fill: #2e86ab"/>
   </g>
   <g id="patch_4">
    <path d="M 194.846698 154.599783 
C 194.829617 155.306392 194.821077 156.013171 194.821077 156.719987 
C 194.821077 157.426802 194.829617 158.133602 194.846698 158.840211 
L 282.565077 156.72 
z
" style="fill: #2e86ab"/>
   </g>
   <g id="patch_5">
    <path d="M 194.846698 158.840211 
C 195.263808 176.096987 200.764151 192.852924 210.655624 206.99962 
C 220.547096 221.146315 234.396652 232.064427 250.461591 238.380125 
C 266.52653 244.695823 284.103552 246.132595 300.980893 242.509667 
C 317.858233 238.886734 333.297009 230.362727 345.354585 218.010191 
C 357.412161 205.657656 365.560633 190.017418 368.774688 173.057463 
C 371.988748 156.097507 370.12766 138.560336 363.425626 122.652697 
C 356.723591 106.745056 345.474027 93.163378 331.092449 83.616623 
C 316.710871 74.069867 299.826904 68.976 282.565089 68.976 
L 282.565077 156.72 
z
" style="fill: #f18f01"/>
   </g>
   <g id="matplotlib.axis_1"/>
   <g id="matplotlib.axis_2"/>
   <g id="text_1">
    <!-- Edited -->
    <g transform="translate(201.766924 70.684543) scale(0.1 -0.1)">
     <defs>
      <path id="DejaVuSans-45" d="M 628 4666 
L 3578 4666 
L 3578 4134 
L 1259 4134 
L 1259 2753 
L 3481 2753 
L 3481 2222 
L 1259 2222 
L 1259 531 
L 3634 531 
L 3634 0 
L 628 0 
L 628 4666 
z
" transform="scale(0.015625)"/>
      <path id="DejaVuSans-64" d="M 2906 2969 
L 2906 4863 
L 3481 4863 
L 3481 0 
L 2906 0 
L 2906 525 
Q 2725 213 2448 61 
Q 2172 -91 1784 -91 
Q 1150 -91 751 415 
Q 353 922 353 1747 
Q 353 2572 751 3078 
Q 1150 3584 1784 3584 
Q 2172 3584 2448 3432 
Q 2725 3281 2906 2969 
z
M 947 1747 
Q 947 1113 1208 752 
Q 1469 391 1925 391 
Q 2381 391 2643 752 
Q 2906 1113 2906 1747 
Q 2906 2381 2643 2742 
Q 2381 3103 1925 3103 
Q 1469 3103 1208 2742 
Q 947 2381 947 1747 
z
" transform="scale(0.015625)"/>
      <path id="DejaVuSans-69" d="M 603 3500 
L 1178 3500 
L 1178 0 
L 603 0 
L 603 3500 
z
M 603 4863 
L 1178 4863 
L 1178 4134 
L 603 4134 
L 603 4863 
z
" transform="scale(0.015625)"/>
      <path id="DejaVuSans-74" d="M 1172 4494 
L 1172 3500 
L 2356 3500 
L 2356 3053 
L 1172 3053 
L 1172 1153 
Q 1172 725 1289 603 
Q 1406 481 1766 481 
L 2356 481 
L 2356 0 
L 1766 0 
Q 1100 0 847 248 
Q 594 497 594 1153 
L 594 3053 
L 172 3053 
L 172 3500 
L 594 3500 
L 594 4494 
L 1172 4494 
z
" transform="scale(0.015625)"/>
      <path id="DejaVuSans-65" d="M 3597 1894 
L 3597 1613 
L 953 1613 
Q 991 1019 1311 708 
Q 1631 397 2203 397 
Q 2534 397 2845 478 
Q 3156 559 3463 722 
L 3463 178 
Q 3153 47 2828 -22 
Q 2503 -91 2169 -91 
Q 1331 -91 842 396 
Q 353 884 353 1716 
Q 353 2575 817 3079 
Q 1281 3584 2069 3584 
Q 2775 3584 3186 3129 
Q 3597 2675 3597 1894 
z
M 3022 2063 
Q 3016 2534 2758 2815 
Q 2500 3097 2075 3097 
Q 1594 3097 1305 2825 
Q 1016 2553 972 2059 
L 3022 2063 
z
" transform="scale(0.015625)"/>
     </defs>
     <use xlink:href="#DejaVuSans-45"/>
     <use xlink:href="#DejaVuSans-64" transform="translate(63.183594 0)"/>
     <use xlink:href="#DejaVuSans-69" transform="translate(126.660156 0)"/>
     <use xlink:href="#DejaVuSans-74" transform="translate(154.443359 0)"/>
     <use xlink:href="#DejaVuSans-65" transform="translate(193.652344 0)"/>
     <use xlink:href="#DejaVuSans-64" transform="translate(255.175781 0)"/>
    </g>
    <!-- 16.9% -->
    <g transform="translate(201.866924 81.882355) scale(0.1 -0.1)">
     <defs>
      <path id="DejaVuSans-31" d="M 794 531 
L 1825 531 
L 1825 4091 
L 703 3866 
L 703 4441 
L 1819 4666 
L 2450 4666 
L 2450 531 
L 3481 531 
L 3481 0 
L 794 0 
L 794 531 
z
" transform="scale(0.015625)"/>
      <path id="DejaVuSans-36" d="M 2113 2584 
Q 1688 2584 1439 2293 
Q 1191 2003 1191 1497 
Q 1191 994 1439 701 
Q 1688 409 2113 409 
Q 2538 409 2786 701 
Q 3034 994 3034 1497 
Q 3034 2003 2786 2293 
Q 2538 2584 2113 2584 
z
M 3366 4563 
L 3366 3988 
Q 3128 4100 2886 4159 
Q 2644 4219 2406 4219 
Q 1781 4219 1451 3797 
Q 1122 3375 1075 2522 
Q 1259 2794 1537 2939 
Q 1816 3084 2150 3084 
Q 2853 3084 3261 2657 
Q 3669 2231 3669 1497 
Q 3669 778 3244 343 
Q 2819 -91 2113 -91 
Q 1303 -91 875 529 
Q 447 1150 447 2328 
Q 447 3434 972 4092 
Q 1497 4750 2381 4750 
Q 2619 4750 2861 4703 
Q 3103 4656 3366 4563 
z
" transform="scale(0.015625)"/>
      <path id="DejaVuSans-2e" d="M 684 794 
L 1344 794 
L 1344 0 
L 684 0 
L 684 794 
z
" transform="scale(0.015625)"/>
      <path id="DejaVuSans-39" d="M 703 97 
L 703 672 
Q 941 559 1184 500 
Q 1428 441 1663 441 
Q 2288 441 2617 861 
Q 2947 1281 2994 2138 
Q 2813 1869 2534 1725 
Q 2256 1581 1919 1581 
Q 1219 1581 811 2004 
Q 403 2428 403 3163 
Q 403 3881 828 4315 
Q 1253 4750 1959 4750 
Q 2769 4750 3195 4129 
Q 3622 3509 3622 2328 
Q 3622 1225 3098 567 
Q 2575 -91 1691 -91 
Q 1453 -91 1209 -44 
Q 966 3 703 97 
z
M 1959 2075 
Q 2384 2075 2632 2365 
Q 2881 2656 2881 3163 
Q 2881 3666 2632 3958 
Q 2384 4250 1959 4250 
Q 1534 4250 1286 3958 
Q 1038 3666 1038 3163 
Q 1038 2656 1286 2365 
Q 1534 2075 1959 2075 
z
" transform="scale(0.015625)"/>
      <path id="DejaVuSans-25" d="M 4653 2053 
Q 4381 2053 4226 1822 
Q 4072 1591 4072 1178 
Q 4072 772 4226 539 
Q 4381 306 4653 306 
Q 4919 306 5073 539 
Q 5228 772 5228 1178 
Q 5228 1588 5073 1820 
Q 4919 2053 4653 2053 
z
M 4653 2450 
Q 5147 2450 5437 2106 
Q 5728 1763 5728 1178 
Q 5728 594 5436 251 
Q 5144 -91 4653 -91 
Q 4153 -91 3862 251 
Q 3572 594 3572 1178 
Q 3572 1766 3864 2108 
Q 4156 2450 4653 2450 
z
M 1428 4353 
Q 1159 4353 1004 4120 
Q 850 3888 850 3481 
Q 850 3069 1003 2837 
Q 1156 2606 1428 2606 
Q 1700 2606 1854 2837 
Q 2009 3069 2009 3481 
Q 2009 3884 1853 4118 
Q 1697 4353 1428 4353 
z
M 4250 4750 
L 4750 4750 
L 1831 -91 
L 1331 -91 
L 4250 4750 
z
M 1428 4750 
Q 1922 4750 2215 4408 
Q 2509 4066 2509 3481 
Q 2509 2891 2217 2550 
Q 1925 2209 1428 2209 
Q 931 2209 642 2551 
Q 353 2894 353 3481 
Q 353 4063 643 4406 
Q 934 4750 1428 4750 
z
" transform="scale(0.015625)"/>
     </defs>
     <use xlink:href="#DejaVuSans-31"/>
     <use xlink:href="#DejaVuSans-36" transform="translate(63.623047 0)"/>
     <use xlink:href="#DejaVuSans-2e" transform="translate(127.246094 0)"/>
     <use xlink:href="#DejaVuSans-39" transform="translate(159.033203 0)"/>
     <use xlink:href="#DejaVuSans-25" transform="translate(222.65625 0)"/>
    </g>
   </g>
   <g id="text_2">
    <!-- Draft -->
    <g transform="translate(164.232145 128.524371) scale(0.1 -0.1)">
     <defs>
      <path id="DejaVuSans-44" d="M 1259 4147 
L 1259 519 
L 2022 519 
Q 2988 519 3436 956 
Q 3884 1394 3884 2338 
Q 3884 3275 3436 3711 
Q 2988 4147 2022 4147 
L 1259 4147 
z
M 628 4666 
L 1925 4666 
Q 3281 4666 3915 4102 
Q 4550 3538 4550 2338 
Q 4550 1131 3912 565 
Q 3275 0 1925 0 
L 628 0 
L 628 4666 
z
" transform="scale(0.015625)"/>
      <path id="DejaVuSans-72" d="M 2631 2963 
Q 2534 3019 2420 3045 
Q 2306 3072 2169 3072 
Q 1681 3072 1420 2755 
Q 1159 2438 1159 1844 
L 1159 0 
L 581 0 
L 581 3500 
L 1159 3500 
L 1159 2956 
Q 1341 3275 1631 3429 
Q 1922 3584 2338 3584 
Q 2397 3584 2469 3576 
Q 2541 3569 2628 3553 
L 2631 2963 
z
" transform="scale(0.015625)"/>
      <path id="DejaVuSans-61" d="M 2194 1759 
Q 1497 1759 1228 1600 
Q 959 1441 959 1056 
Q 959 750 1161 570 
Q 1363 391 1709 391 
Q 2188 391 2477 730 
Q 2766 1069 2766 1631 
L 2766 1759 
L 2194 1759 
z
M 3341 1997 
L 3341 0 
L 2766 0 
L 2766 531 
Q 2569 213 2275 61 
Q 1981 -91 1556 -91 
Q 1019 -91 701 211 
Q 384 513 384 1019 
Q 384 1609 779 1909 
Q 1175 2209 1959 2209 
L 2766 2209 
L 2766 2266 
Q 2766 2663 2505 2880 
Q 2244 3097 1772 3097 
Q 1472 3097 1187 3025 
Q 903 2953 641 2809 
L 641 3341 
Q 956 3463 1253 3523 
Q 1550 3584 1831 3584 
Q 2591 3584 2966 3190 
Q 3341 2797 3341 1997 
z
" transform="scale(0.015625)"/>
      <path id="DejaVuSans-66" d="M 2375 4863 
L 2375 4384 
L 1825 4384 
Q 1516 4384 1395 4259 
Q 1275 4134 1275 3809 
L 1275 3500 
L 2222 3500 
L 2222 3053 
L 1275 3053 
L 1275 0 
L 697 0 
L 697 3053 
L 147 3053 
L 147 3500 
L 697 3500 
L 697 3744 
Q 697 4328 969 4595 
Q 1241 4863 1831 4863 
L 2375 4863 
z
" transform="scale(0.015625)"/>
     </defs>
     <use xlink:href="#DejaVuSans-44"/>
     <use xlink:href="#DejaVuSans-72" transform="translate(77.001953 0)"/>
     <use xlink:href="#DejaVuSans-61" transform="translate(118.115234 0)"/>
     <use xlink:href="#DejaVuSans-66" transform="translate(179.394531 0)"/>
     <use xlink:href="#DejaVuSans-74" transform="translate(212.849609 0)"/>
    </g>
    <!-- 7.7% -->
    <g transform="translate(164.032145 139.722183) scale(0.1 -0.1)">
     <defs>
      <path id="DejaVuSans-37" d="M 525 4666 
L 3525 4666 
L 3525 4397 
L 1831 0 
L 1172 0 
L 2766 4134 
L 525 4134 
L 525 4666 
z
" transform="scale(0.015625)"/>
     </defs>
     <use xlink:href="#DejaVuSans-37"/>
     <use xlink:href="#DejaVuSans-2e" transform="translate(63.623047 0)"/>
     <use xlink:href="#DejaVuSans-37" transform="translate(95.410156 0)"/>
     <use xlink:href="#DejaVuSans-25" transform="translate(159.033203 0)"/>
    </g>
   </g>
   <g id="text_3">
    <!-- Refined -->
    <g transform="translate(148.257614 153.880477) scale(0.1 -0.1)">
     <defs>
      <path id="DejaVuSans-52" d="M 2841 2188 
Q 3044 2119 3236 1894 
Q 3428 1669 3622 1275 
L 4263 0 
L 3584 0 
L 2988 1197 
Q 2756 1666 2539 1819 
Q 2322 1972 1947 1972 
L 1259 1972 
L 1259 0 
L 628 0 
L 628 4666 
L 2053 4666 
Q 2853 4666 3247 4331 
Q 3641 3997 3641 3322 
Q 3641 2881 3436 2590 
Q 3231 2300 2841 2188 
z
M 1259 4147 
L 1259 2491 
L 2053 2491 
Q 2509 2491 2742 2702 
Q 2975 2913 2975 3322 
Q 2975 3731 2742 3939 
Q 2509 4147 2053 4147 
L 1259 4147 
z
" transform="scale(0.015625)"/>
      <path id="DejaVuSans-6e" d="M 3513 2113 
L 3513 0 
L 2938 0 
L 2938 2094 
Q 2938 2591 2744 2837 
Q 2550 3084 2163 3084 
Q 1697 3084 1428 2787 
Q 1159 2491 1159 1978 
L 1159 0 
L 581 0 
L 581 3500 
L 1159 3500 
L 1159 2956 
Q 1366 3272 1645 3428 
Q 1925 3584 2291 3584 
Q 2894 3584 3203 3211 
Q 3513 2838 3513 2113 
z
" transform="scale(0.015625)"/>
     </defs>
     <use xlink:href="#DejaVuSans-52"/>
     <use xlink:href="#DejaVuSans-65" transform="translate(64.982422 0)"/>
     <use xlink:href="#DejaVuSans-66" transform="translate(126.505859 0)"/>
     <use xlink:href="#DejaVuSans-69" transform="translate(161.710938 0)"/>
     <use xlink:href="#DejaVuSans-6e" transform="translate(189.494141 0)"/>
     <use xlink:href="#DejaVuSans-65" transform="translate(252.873047 0)"/>
     <use xlink:href="#DejaVuSans-64" transform="translate(314.396484 0)"/>
    </g>
    <!-- 0.8% -->
    <g transform="translate(160.641989 165.07829) scale(0.1 -0.1)">
     <defs>
      <path id="DejaVuSans-30" d="M 2034 4250 
Q 1547 4250 1301 3770 
Q 1056 3291 1056 2328 
Q 1056 1369 1301 889 
Q 1547 409 2034 409 
Q 2525 409 2770 889 
Q 3016 1369 3016 2328 
Q 3016 3291 2770 3770 
Q 2525 4250 2034 4250 
z
M 2034 4750 
Q 2819 4750 3233 4129 
Q 3647 3509 3647 2328 
Q 3647 1150 3233 529 
Q 2819 -91 2034 -91 
Q 1250 -91 836 529 
Q 422 1150 422 2328 
Q 422 3509 836 4129 
Q 1250 4750 2034 4750 
z
" transform="scale(0.015625)"/>
      <path id="DejaVuSans-38" d="M 2034 2216 
Q 1584 2216 1326 1975 
Q 1069 1734 1069 1313 
Q 1069 891 1326 650 
Q 1584 409 2034 409 
Q 2484 409 2743 651 
Q 3003 894 3003 1313 
Q 3003 1734 2745 1975 
Q 2488 2216 2034 2216 
z
M 1403 2484 
Q 997 2584 770 2862 
Q 544 3141 544 3541 
Q 544 4100 942 4425 
Q 1341 4750 2034 4750 
Q 2731 4750 3128 4425 
Q 3525 4100 3525 3541 
Q 3525 3141 3298 2862 
Q 3072 2584 2669 2484 
Q 3125 2378 3379 2068 
Q 3634 1759 3634 1313 
Q 3634 634 3220 271 
Q 2806 -91 2034 -91 
Q 1263 -91 848 271 
Q 434 634 434 1313 
Q 434 1759 690 2068 
Q 947 2378 1403 2484 
z
M 1172 3481 
Q 1172 3119 1398 2916 
Q 1625 2713 2034 2713 
Q 2441 2713 2670 2916 
Q 2900 3119 2900 3481 
Q 2900 3844 2670 4047 
Q 2441 4250 2034 4250 
Q 1625 4250 1398 4047 
Q 1172 3844 1172 3481 
z
" transform="scale(0.015625)"/>
     </defs>
     <use xlink:href="#DejaVuSans-30"/>
     <use xlink:href="#DejaVuSans-2e" transform="translate(63.623047 0)"/>
     <use xlink:href="#DejaVuSans-38" transform="translate(95.410156 0)"/>
     <use xlink:href="#DejaVuSans-25" transform="translate(159.033203 0)"/>
    </g>
   </g>
   <g id="text_4">
    <!-- New Content -->
    <g transform="translate(351.633566 221.299645) scale(0.1 -0.1)">
     <defs>
      <path id="DejaVuSans-4e" d="M 628 4666 
L 1478 4666 
L 3547 763 
L 3547 4666 
L 4159 4666 
L 4159 0 
L 3309 0 
L 1241 3903 
L 1241 0 
L 628 0 
L 628 4666 
z
" transform="scale(0.015625)"/>
      <path id="DejaVuSans-77" d="M 269 3500 
L 844 3500 
L 1563 769 
L 2278 3500 
L 2956 3500 
L 3675 769 
L 4391 3500 
L 4966 3500 
L 4050 0 
L 3372 0 
L 2619 2869 
L 1863 0 
L 1184 0 
L 269 3500 
z
" transform="scale(0.015625)"/>
      <path id="DejaVuSans-20" transform="scale(0.015625)"/>
      <path id="DejaVuSans-43" d="M 4122 4306 
L 4122 3641 
Q 3803 3938 3442 4084 
Q 3081 4231 2675 4231 
Q 1875 4231 1450 3742 
Q 1025 3253 1025 2328 
Q 1025 1406 1450 917 
Q 1875 428 2675 428 
Q 3081 428 3442 575 
Q 3803 722 4122 1019 
L 4122 359 
Q 3791 134 3420 21 
Q 3050 -91 2638 -91 
Q 1578 -91 968 557 
Q 359 1206 359 2328 
Q 359 3453 968 4101 
Q 1578 4750 2638 4750 
Q 3056 4750 3426 4639 
Q 3797 4528 4122 4306 
z
" transform="scale(0.015625)"/>
      <path id="DejaVuSans-6f" d="M 1959 3097 
Q 1497 3097 1228 2736 
Q 959 2375 959 1747 
Q 959 1119 1226 758 
Q 1494 397 1959 397 
Q 2419 397 2687 759 
Q 2956 1122 2956 1747 
Q 2956 2369 2687 2733 
Q 2419 3097 1959 3097 
z
M 1959 3584 
Q 2709 3584 3137 3096 
Q 3566 2609 3566 1747 
Q 3566 888 3137 398 
Q 2709 -91 1959 -91 
Q 1206 -91 779 398 
Q 353 888 353 1747 
Q 353 2609 779 3096 
Q 1206 3584 1959 3584 
z
" transform="scale(0.015625)"/>
     </defs>
     <use xlink:href="#DejaVuSans-4e"/>
     <use xlink:href="#DejaVuSans-65" transform="translate(74.804688 0)"/>
     <use xlink:href="#DejaVuSans-77" transform="translate(136.328125 0)"/>
     <use xlink:href="#DejaVuSans-20" transform="translate(218.115234 0)"/>
     <use xlink:href="#DejaVuSans-43" transform="translate(249.902344 0)"/>
     <use xlink:href="#DejaVuSans-6f" transform="translate(319.726562 0)"/>
     <use xlink:href="#DejaVuSans-6e" transform="translate(380.908203 0)"/>
     <use xlink:href="#DejaVuSans-74" transform="translate(444.287109 0)"/>
     <use xlink:href="#DejaVuSans-65" transform="translate(483.496094 0)"/>
     <use xlink:href="#DejaVuSans-6e" transform="translate(545.019531 0)"/>
     <use xlink:href="#DejaVuSans-74" transform="translate(608.398438 0)"/>
    </g>
    <!-- 74.6% -->
    <g transform="translate(351.633566 232.497457) scale(0.1 -0.1)">
     <defs>
      <path id="DejaVuSans-34" d="M 2419 4116 
L 825 1625 
L 2419 1625 
L 2419 4116 
z
M 2253 4666 
L 3047 4666 
L 3047 1625 
L 3713 1625 
L 3713 1100 
L 3047 1100 
L 3047 0 
L 2419 0 
L 2419 1100 
L 313 1100 
L 313 1709 
L 2253 4666 
z
" transform="scale(0.015625)"/>
     </defs>
     <use xlink:href="#DejaVuSans-37"/>
     <use xlink:href="#DejaVuSans-34" transform="translate(63.623047 0)"/>
     <use xlink:href="#DejaVuSans-2e" transform="translate(127.246094 0)"/>
     <use xlink:href="#DejaVuSans-36" transform="translate(159.033203 0)"/>
     <use xlink:href="#DejaVuSans-25" transform="translate(222.65625 0)"/>
    </g>
   </g>
   <g id="text_5">
    <!-- Content Origins -->
    <g transform="translate(229.292577 41.04) scale(0.12 -0.12)">
     <defs>
      <path id="DejaVuSans-Bold-43" d="M 4288 256 
Q 3956 84 3597 -3 
Q 3238 -91 2847 -91 
Q 1681 -91 1000 561 
Q 319 1213 319 2328 
Q 319 3447 1000 4098 
Q 1681 4750 2847 4750 
Q 3238 4750 3597 4662 
Q 3956 4575 4288 4403 
L 4288 3438 
Q 3953 3666 3628 3772 
Q 3303 3878 2944 3878 
Q 2300 3878 1931 3465 
Q 1563 3053 1563 2328 
Q 1563 1606 1931 1193 
Q 2300 781 2944 781 
Q 3303 781 3628 887 
Q 3953 994 4288 1222 
L 4288 256 
z
" transform="scale(0.015625)"/>
      <path id="DejaVuSans-Bold-6f" d="M 2203 2784 
Q 1831 2784 1636 2517 
Q 1441 2250 1441 1747 
Q 1441 1244 1636 976 
Q 1831 709 2203 709 
Q 2569 709 2762 976 
Q 2956 1244 2956 1747 
Q 2956 2250 2762 2517 
Q 2569 2784 2203 2784 
z
M 2203 3584 
Q 3106 3584 3614 3096 
Q 4122 2609 4122 1747 
Q 4122 884 3614 396 
Q 3106 -91 2203 -91 
Q 1297 -91 786 396 
Q 275 884 275 1747 
Q 275 2609 786 3096 
Q 1297 3584 2203 3584 
z
" transform="scale(0.015625)"/>
      <path id="DejaVuSans-Bold-6e" d="M 4056 2131 
L 4056 0 
L 2931 0 
L 2931 347 
L 2931 1631 
Q 2931 2084 2911 2256 
Q 2891 2428 2841 2509 
Q 2775 2619 2662 2680 
Q 2550 2741 2406 2741 
Q 2056 2741 1856 2470 
Q 1656 2200 1656 1722 
L 1656 0 
L 538 0 
L 538 3500 
L 1656 3500 
L 1656 2988 
Q 1909 3294 2193 3439 
Q 2478 3584 2822 3584 
Q 3428 3584 3742 3212 
Q 4056 2841 4056 2131 
z
" transform="scale(0.015625)"/>
      <path id="DejaVuSans-Bold-74" d="M 1759 4494 
L 1759 3500 
L 2913 3500 
L 2913 2700 
L 1759 2700 
L 1759 1216 
Q 1759 972 1856 886 
Q 1953 800 2241 800 
L 2816 800 
L 2816 0 
L 1856 0 
Q 1194 0 917 276 
Q 641 553 641 1216 
L 641 2700 
L 84 2700 
L 84 3500 
L 641 3500 
L 641 4494 
L 1759 4494 
z
" transform="scale(0.015625)"/>
      <path id="DejaVuSans-Bold-65" d="M 4031 1759 
L 4031 1441 
L 1416 1441 
Q 1456 1047 1700 850 
Q 1944 653 2381 653 
Q 2734 653 3104 758 
Q 3475 863 3866 1075 
L 3866 213 
Q 3469 63 3072 -14 
Q 2675 -91 2278 -91 
Q 1328 -91 801 392 
Q 275 875 275 1747 
Q 275 2603 792 3093 
Q 1309 3584 2216 3584 
Q 3041 3584 3536 3087 
Q 4031 2591 4031 1759 
z
M 2881 2131 
Q 2881 2450 2695 2645 
Q 2509 2841 2209 2841 
Q 1884 2841 1681 2658 
Q 1478 2475 1428 2131 
L 2881 2131 
z
" transform="scale(0.015625)"/>
      <path id="DejaVuSans-Bold-20" transform="scale(0.015625)"/>
      <path id="DejaVuSans-Bold-4f" d="M 2719 3878 
Q 2169 3878 1866 3472 
Q 1563 3066 1563 2328 
Q 1563 1594 1866 1187 
Q 2169 781 2719 781 
Q 3272 781 3575 1187 
Q 3878 1594 3878 2328 
Q 3878 3066 3575 3472 
Q 3272 3878 2719 3878 
z
M 2719 4750 
Q 3844 4750 4481 4106 
Q 5119 3463 5119 2328 
Q 5119 1197 4481 553 
Q 3844 -91 2719 -91 
Q 1597 -91 958 553 
Q 319 1197 319 2328 
Q 319 3463 958 4106 
Q 1597 4750 2719 4750 
z
" transform="scale(0.015625)"/>
      <path id="DejaVuSans-Bold-72" d="M 3138 2547 
Q 2991 2616 2845 2648 
Q 2700 2681 2553 2681 
Q 2122 2681 1889 2404 
Q 1656 2128 1656 1613 
L 1656 0 
L 538 0 
L 538 3500 
L 1656 3500 
L 1656 2925 
Q 1872 3269 2151 3426 
Q 2431 3584 2822 3584 
Q 2878 3584 2943 3579 
Q 3009 3575 3134 3559 
L 3138 2547 
z
" transform="scale(0.015625)"/>
      <path id="DejaVuSans-Bold-69" d="M 538 3500 
L 1656 3500 
L 1656 0 
L 538 0 
L 538 3500 
z
M 538 4863 
L 1656 4863 
L 1656 3950 
L 538 3950 
L 538 4863 
z
" transform="scale(0.015625)"/>
      <path id="DejaVuSans-Bold-67" d="M 2919 594 
Q 2688 288 2409 144 
Q 2131 0 1766 0 
Q 1125 0 706 504 
Q 288 1009 288 1791 
Q 288 2575 706 3076 
Q 1125 3578 1766 3578 
Q 2131 3578 2409 3434 
Q 2688 3291 2919 2981 
L 2919 3500 
L 4044 3500 
L 4044 353 
Q 4044 -491 3511 -936 
Q 2978 -1381 1966 -1381 
Q 1638 -1381 1331 -1331 
Q 1025 -1281 716 -1178 
L 716 -306 
Q 1009 -475 1290 -558 
Q 1572 -641 1856 -641 
Q 2406 -641 2662 -400 
Q 2919 -159 2919 353 
L 2919 594 
z
M 2181 2772 
Q 1834 2772 1640 2515 
Q 1447 2259 1447 1791 
Q 1447 1309 1634 1061 
Q 1822 813 2181 813 
Q 2531 813 2725 1069 
Q 2919 1325 2919 1791 
Q 2919 2259 2725 2515 
Q 2531 2772 2181 2772 
z
" transform="scale(0.015625)"/>
      <path id="DejaVuSans-Bold-73" d="M 3272 3391 
L 3272 2541 
Q 2913 2691 2578 2766 
Q 2244 2841 1947 2841 
Q 1628 2841 1473 2761 
Q 1319 2681 1319 2516 
Q 1319 2381 1436 2309 
Q 1553 2238 1856 2203 
L 2053 2175 
Q 2913 2066 3209 1816 
Q 3506 1566 3506 1031 
Q 3506 472 3093 190 
Q 2681 -91 1863 -91 
Q 1516 -91 1145 -36 
Q 775 19 384 128 
L 384 978 
Q 719 816 1070 734 
Q 1422 653 1784 653 
Q 2113 653 2278 743 
Q 2444 834 2444 1013 
Q 2444 1163 2330 1236 
Q 2216 1309 1875 1350 
L 1678 1375 
Q 931 1469 631 1722 
Q 331 1975 331 2491 
Q 331 3047 712 3315 
Q 1094 3584 1881 3584 
Q 2191 3584 2531 3537 
Q 2872 3491 3272 3391 
z
" transform="scale(0.015625)"/>
     </defs>
     <use xlink:href="#DejaVuSans-Bold-43"/>
     <use xlink:href="#DejaVuSans-Bold-6f" transform="translate(73.388672 0)"/>
     <use xlink:href="#DejaVuSans-Bold-6e" transform="translate(142.089844 0)"/>
     <use xlink:href="#DejaVuSans-Bold-74" transform="translate(213.28125 0)"/>
     <use xlink:href="#DejaVuSans-Bold-65" transform="translate(261.083984 0)"/>
     <use xlink:href="#DejaVuSans-Bold-6e" transform="translate(328.90625 0)"/>
     <use xlink:href="#DejaVuSans-Bold-74" transform="translate(400.097656 0)"/>
     <use xlink:href="#DejaVuSans-Bold-20" transform="translate(447.900391 0)"/>
     <use xlink:href="#DejaVuSans-Bold-4f" transform="translate(482.714844 0)"/>
     <use xlink:href="#DejaVuSans-Bold-72" transform="translate(567.724609 0)"/>
     <use xlink:href="#DejaVuSans-Bold-69" transform="translate(617.041016 0)"/>
     <use xlink:href="#DejaVuSans-Bold-67" transform="translate(651.318359 0)"/>
     <use xlink:href="#DejaVuSans-Bold-69" transform="translate(722.900391 0)"/>
     <use xlink:href="#DejaVuSans-Bold-6e" transform="translate(757.177734 0)"/>
     <use xlink:href="#DejaVuSans-Bold-73" transform="translate(828.369141 0)"/>
    </g>
   </g>
  </g>
  <g id="axes_2">
   <g id="patch_6">
    <path d="M 493.661096 266.4 
L 849.50375 266.4 
L 849.50375 47.04 
L 493.661096 47.04 
z
" style="fill: #ffffff"/>
   </g>
   <g id="patch_7">
    <path d="M 509.835763 266.4 
L 577.93962 266.4 
L 577.93962 113.824504 
L 509.835763 113.824504 
z
" clip-path="url(#pae2e940775)" style="fill: #a23b72; opacity: 0.7"/>
   </g>
   <g id="patch_8">
    <path d="M 594.965584 266.4 
L 663.069441 266.4 
L 663.069441 185.138102 
L 594.965584 185.138102 
z
" clip-path="url(#pae2e940775)" style="fill: #a23b72; opacity: 0.7"/>
   </g>
   <g id="patch_9">
    <path d="M 680.095405 266.4 
L 748.199263 266.4 
L 748.199263 172.362392 
L 680.095405 172.362392 
z
" clip-path="url(#pae2e940775)" style="fill: #a23b72; opacity: 0.7"/>
   </g>
   <g id="patch_10">
    <path d="M 765.225227 266.4 
L 833.329084 266.4 
L 833.329084 57.485714 
L 765.225227 57.485714 
z
" clip-path="url(#pae2e940775)" style="fill: #a23b72; opacity: 0.7"/>
   </g>
   <g id="matplotlib.axis_3">
    <g id="xtick_1">
     <g id="line2d_1">
      <defs>
       <path id="m078594bfc7" d="M 0 0 
L 0 3.5 
" style="stroke: #000000; stroke-width: 0.8"/>
      </defs>
      <g>
       <use xlink:href="#m078594bfc7" x="543.887691" y="266.4" style="stroke: #000000; stroke-width: 0.8"/>
      </g>
     </g>
     <g id="text_6">
      <!-- Draft -->
      <g transform="translate(531.285347 280.998437) scale(0.1 -0.1)">
       <use xlink:href="#DejaVuSans-44"/>
       <use xlink:href="#DejaVuSans-72" transform="translate(77.001953 0)"/>
       <use xlink:href="#DejaVuSans-61" transform="translate(118.115234 0)"/>
       <use xlink:href="#DejaVuSans-66" transform="translate(179.394531 0)"/>
       <use xlink:href="#DejaVuSans-74" transform="translate(212.849609 0)"/>
      </g>
     </g>
    </g>
    <g id="xtick_2">
     <g id="line2d_2">
      <g>
       <use xlink:href="#m078594bfc7" x="629.017513" y="266.4" style="stroke: #000000; stroke-width: 0.8"/>
      </g>
     </g>
     <g id="text_7">
      <!-- Refined -->
      <g transform="translate(610.122981 280.998437) scale(0.1 -0.1)">
       <use xlink:href="#DejaVuSans-52"/>
       <use xlink:href="#DejaVuSans-65" transform="translate(64.982422 0)"/>
       <use xlink:href="#DejaVuSans-66" transform="translate(126.505859 0)"/>
       <use xlink:href="#DejaVuSans-69" transform="translate(161.710938 0)"/>
       <use xlink:href="#DejaVuSans-6e" transform="translate(189.494141 0)"/>
       <use xlink:href="#DejaVuSans-65" transform="translate(252.873047 0)"/>
       <use xlink:href="#DejaVuSans-64" transform="translate(314.396484 0)"/>
      </g>
     </g>
    </g>
    <g id="xtick_3">
     <g id="line2d_3">
      <g>
       <use xlink:href="#m078594bfc7" x="714.147334" y="266.4" style="stroke: #000000; stroke-width: 0.8"/>
      </g>
     </g>
     <g id="text_8">
      <!-- Edited -->
      <g transform="translate(698.21374 280.998437) scale(0.1 -0.1)">
       <use xlink:href="#DejaVuSans-45"/>
       <use xlink:href="#DejaVuSans-64" transform="translate(63.183594 0)"/>
       <use xlink:href="#DejaVuSans-69" transform="translate(126.660156 0)"/>
       <use xlink:href="#DejaVuSans-74" transform="translate(154.443359 0)"/>
       <use xlink:href="#DejaVuSans-65" transform="translate(193.652344 0)"/>
       <use xlink:href="#DejaVuSans-64" transform="translate(255.175781 0)"/>
      </g>
     </g>
    </g>
    <g id="xtick_4">
     <g id="line2d_4">
      <g>
       <use xlink:href="#m078594bfc7" x="799.277155" y="266.4" style="stroke: #000000; stroke-width: 0.8"/>
      </g>
     </g>
     <g id="text_9">
      <!-- Final -->
      <g transform="translate(787.752937 280.998437) scale(0.1 -0.1)">
       <defs>
        <path id="DejaVuSans-46" d="M 628 4666 
L 3309 4666 
L 3309 4134 
L 1259 4134 
L 1259 2759 
L 3109 2759 
L 3109 2228 
L 1259 2228 
L 1259 0 
L 628 0 
L 628 4666 
z
" transform="scale(0.015625)"/>
        <path id="DejaVuSans-6c" d="M 603 4863 
L 1178 4863 
L 1178 0 
L 603 0 
L 603 4863 
z
" transform="scale(0.015625)"/>
       </defs>
       <use xlink:href="#DejaVuSans-46"/>
       <use xlink:href="#DejaVuSans-69" transform="translate(50.269531 0)"/>
       <use xlink:href="#DejaVuSans-6e" transform="translate(78.052734 0)"/>
       <use xlink:href="#DejaVuSans-61" transform="translate(141.431641 0)"/>
       <use xlink:href="#DejaVuSans-6c" transform="translate(202.710938 0)"/>
      </g>
     </g>
    </g>
   </g>
   <g id="matplotlib.axis_4">
    <g id="ytick_1">
     <g id="line2d_5">
      <defs>
       <path id="mfcb41181b3" d="M 0 0 
L -3.5 0 
" style="stroke: #000000; stroke-width: 0.8"/>
      </defs>
      <g>
       <use xlink:href="#mfcb41181b3" x="493.661096" y="266.4" style="stroke: #000000; stroke-width: 0.8"/>
      </g>
     </g>
     <g id="text_10">
      <!-- 0 -->
      <g transform="translate(480.298596 270.199219) scale(0.1 -0.1)">
       <use xlink:href="#DejaVuSans-30"/>
      </g>
     </g>
    </g>
    <g id="ytick_2">
     <g id="line2d_6">
      <g>
       <use xlink:href="#mfcb41181b3" x="493.661096" y="240.220265" style="stroke: #000000; stroke-width: 0.8"/>
      </g>
     </g>
     <g id="text_11">
      <!-- 250 -->
      <g transform="translate(467.573596 244.019484) scale(0.1 -0.1)">
       <defs>
        <path id="DejaVuSans-32" d="M 1228 531 
L 3431 531 
L 3431 0 
L 469 0 
L 469 531 
Q 828 903 1448 1529 
Q 2069 2156 2228 2338 
Q 2531 2678 2651 2914 
Q 2772 3150 2772 3378 
Q 2772 3750 2511 3984 
Q 2250 4219 1831 4219 
Q 1534 4219 1204 4116 
Q 875 4013 500 3803 
L 500 4441 
Q 881 4594 1212 4672 
Q 1544 4750 1819 4750 
Q 2544 4750 2975 4387 
Q 3406 4025 3406 3419 
Q 3406 3131 3298 2873 
Q 3191 2616 2906 2266 
Q 2828 2175 2409 1742 
Q 1991 1309 1228 531 
z
" transform="scale(0.015625)"/>
        <path id="DejaVuSans-35" d="M 691 4666 
L 3169 4666 
L 3169 4134 
L 1269 4134 
L 1269 2991 
Q 1406 3038 1543 3061 
Q 1681 3084 1819 3084 
Q 2600 3084 3056 2656 
Q 3513 2228 3513 1497 
Q 3513 744 3044 326 
Q 2575 -91 1722 -91 
Q 1428 -91 1123 -41 
Q 819 9 494 109 
L 494 744 
Q 775 591 1075 516 
Q 1375 441 1709 441 
Q 2250 441 2565 725 
Q 2881 1009 2881 1497 
Q 2881 1984 2565 2268 
Q 2250 2553 1709 2553 
Q 1456 2553 1204 2497 
Q 953 2441 691 2322 
L 691 4666 
z
" transform="scale(0.015625)"/>
       </defs>
       <use xlink:href="#DejaVuSans-32"/>
       <use xlink:href="#DejaVuSans-35" transform="translate(63.623047 0)"/>
       <use xlink:href="#DejaVuSans-30" transform="translate(127.246094 0)"/>
      </g>
     </g>
    </g>
    <g id="ytick_3">
     <g id="line2d_7">
      <g>
       <use xlink:href="#mfcb41181b3" x="493.661096" y="214.04053" style="stroke: #000000; stroke-width: 0.8"/>
      </g>
     </g>
     <g id="text_12">
      <!-- 500 -->
      <g transform="translate(467.573596 217.839749) scale(0.1 -0.1)">
       <use xlink:href="#DejaVuSans-35"/>
       <use xlink:href="#DejaVuSans-30" transform="translate(63.623047 0)"/>
       <use xlink:href="#DejaVuSans-30" transform="translate(127.246094 0)"/>
      </g>
     </g>
    </g>
    <g id="ytick_4">
     <g id="line2d_8">
      <g>
       <use xlink:href="#mfcb41181b3" x="493.661096" y="187.860795" style="stroke: #000000; stroke-width: 0.8"/>
      </g>
     </g>
     <g id="text_13">
      <!-- 750 -->
      <g transform="translate(467.573596 191.660014) scale(0.1 -0.1)">
       <use xlink:href="#DejaVuSans-37"/>
       <use xlink:href="#DejaVuSans-35" transform="translate(63.623047 0)"/>
       <use xlink:href="#DejaVuSans-30" transform="translate(127.246094 0)"/>
      </g>
     </g>
    </g>
    <g id="ytick_5">
     <g id="line2d_9">
      <g>
       <use xlink:href="#mfcb41181b3" x="493.661096" y="161.68106" style="stroke: #000000; stroke-width: 0.8"/>
      </g>
     </g>
     <g id="text_14">
      <!-- 1000 -->
      <g transform="translate(461.211096 165.480279) scale(0.1 -0.1)">
       <use xlink:href="#DejaVuSans-31"/>
       <use xlink:href="#DejaVuSans-30" transform="translate(63.623047 0)"/>
       <use xlink:href="#DejaVuSans-30" transform="translate(127.246094 0)"/>
       <use xlink:href="#DejaVuSans-30" transform="translate(190.869141 0)"/>
      </g>
     </g>
    </g>
    <g id="ytick_6">
     <g id="line2d_10">
      <g>
       <use xlink:href="#mfcb41181b3" x="493.661096" y="135.501325" style="stroke: #000000; stroke-width: 0.8"/>
      </g>
     </g>
     <g id="text_15">
      <!-- 1250 -->
      <g transform="translate(461.211096 139.300543) scale(0.1 -0.1)">
       <use xlink:href="#DejaVuSans-31"/>
       <use xlink:href="#DejaVuSans-32" transform="translate(63.623047 0)"/>
       <use xlink:href="#DejaVuSans-35" transform="translate(127.246094 0)"/>
       <use xlink:href="#DejaVuSans-30" transform="translate(190.869141 0)"/>
      </g>
     </g>
    </g>
    <g id="ytick_7">
     <g id="line2d_11">
      <g>
       <use xlink:href="#mfcb41181b3" x="493.661096" y="109.32159" style="stroke: #000000; stroke-width: 0.8"/>
      </g>
     </g>
     <g id="text_16">
      <!-- 1500 -->
      <g transform="translate(461.211096 113.120808) scale(0.1 -0.1)">
       <use xlink:href="#DejaVuSans-31"/>
       <use xlink:href="#DejaVuSans-35" transform="translate(63.623047 0)"/>
       <use xlink:href="#DejaVuSans-30" transform="translate(127.246094 0)"/>
       <use xlink:href="#DejaVuSans-30" transform="translate(190.869141 0)"/>
      </g>
     </g>
    </g>
    <g id="ytick_8">
     <g id="line2d_12">
      <g>
       <use xlink:href="#mfcb41181b3" x="493.661096" y="83.141855" style="stroke: #000000; stroke-width: 0.8"/>
      </g>
     </g>
     <g id="text_17">
      <!-- 1750 -->
      <g transform="translate(461.211096 86.941073) scale(0.1 -0.1)">
       <use xlink:href="#DejaVuSans-31"/>
       <use xlink:href="#DejaVuSans-37" transform="translate(63.623047 0)"/>
       <use xlink:href="#DejaVuSans-35" transform="translate(127.246094 0)"/>
       <use xlink:href="#DejaVuSans-30" transform="translate(190.869141 0)"/>
      </g>
     </g>
    </g>
    <g id="ytick_9">
     <g id="line2d_13">
      <g>
       <use xlink:href="#mfcb41181b3" x="493.661096" y="56.96212" style="stroke: #000000; stroke-width: 0.8"/>
      </g>
     </g>
     <g id="text_18">
      <!-- 2000 -->
      <g transform="translate(461.211096 60.761338) scale(0.1 -0.1)">
       <use xlink:href="#DejaVuSans-32"/>
       <use xlink:href="#DejaVuSans-30" transform="translate(63.623047 0)"/>
       <use xlink:href="#DejaVuSans-30" transform="translate(127.246094 0)"/>
       <use xlink:href="#DejaVuSans-30" transform="translate(190.869141 0)"/>
      </g>
     </g>
    </g>
    <g id="text_19">
     <!-- Words -->
     <g transform="translate(455.131409 172.17625) rotate(-90) scale(0.1 -0.1)">
      <defs>
       <path id="DejaVuSans-57" d="M 213 4666 
L 850 4666 
L 1831 722 
L 2809 4666 
L 3519 4666 
L 4500 722 
L 5478 4666 
L 6119 4666 
L 4947 0 
L 4153 0 
L 3169 4050 
L 2175 0 
L 1381 0 
L 213 4666 
z
" transform="scale(0.015625)"/>
       <path id="DejaVuSans-73" d="M 2834 3397 
L 2834 2853 
Q 2591 2978 2328 3040 
Q 2066 3103 1784 3103 
Q 1356 3103 1142 2972 
Q 928 2841 928 2578 
Q 928 2378 1081 2264 
Q 1234 2150 1697 2047 
L 1894 2003 
Q 2506 1872 2764 1633 
Q 3022 1394 3022 966 
Q 3022 478 2636 193 
Q 2250 -91 1575 -91 
Q 1294 -91 989 -36 
Q 684 19 347 128 
L 347 722 
Q 666 556 975 473 
Q 1284 391 1588 391 
Q 1994 391 2212 530 
Q 2431 669 2431 922 
Q 2431 1156 2273 1281 
Q 2116 1406 1581 1522 
L 1381 1569 
Q 847 1681 609 1914 
Q 372 2147 372 2553 
Q 372 3047 722 3315 
Q 1072 3584 1716 3584 
Q 2034 3584 2315 3537 
Q 2597 3491 2834 3397 
z
" transform="scale(0.015625)"/>
      </defs>
      <use xlink:href="#DejaVuSans-57"/>
      <use xlink:href="#DejaVuSans-6f" transform="translate(93.001953 0)"/>
      <use xlink:href="#DejaVuSans-72" transform="translate(154.183594 0)"/>
      <use xlink:href="#DejaVuSans-64" transform="translate(193.546875 0)"/>
      <use xlink:href="#DejaVuSans-73" transform="translate(257.023438 0)"/>
     </g>
    </g>
   </g>
   <g id="patch_11">
    <path d="M 493.661096 266.4 
L 493.661096 47.04 
" style="fill: none; stroke: #000000; stroke-width: 0.8; stroke-linejoin: miter; stroke-linecap: square"/>
   </g>
   <g id="patch_12">
    <path d="M 849.50375 266.4 
L 849.50375 47.04 
" style="fill: none; stroke: #000000; stroke-width: 0.8; stroke-linejoin: miter; stroke-linecap: square"/>
   </g>
   <g id="patch_13">
    <path d="M 493.661096 266.4 
L 849.50375 266.4 
" style="fill: none; stroke: #000000; stroke-width: 0.8; stroke-linejoin: miter; stroke-linecap: square"/>
   </g>
   <g id="patch_14">
    <path d="M 493.661096 47.04 
L 849.50375 47.04 
" style="fill: none; stroke: #000000; stroke-width: 0.8; stroke-linejoin: miter; stroke-linecap: square"/>
   </g>
   <g id="text_20">
    <!-- 1457 -->
    <g transform="translate(532.435191 111.429191) scale(0.09 -0.09)">
     <use xlink:href="#DejaVuSans-31"/>
     <use xlink:href="#DejaVuSans-34" transform="translate(63.623047 0)"/>
     <use xlink:href="#DejaVuSans-35" transform="translate(127.246094 0)"/>
     <use xlink:href="#DejaVuSans-37" transform="translate(190.869141 0)"/>
    </g>
   </g>
   <g id="text_21">
    <!-- 776 -->
    <g transform="translate(620.428138 182.742789) scale(0.09 -0.09)">
     <use xlink:href="#DejaVuSans-37"/>
     <use xlink:href="#DejaVuSans-37" transform="translate(63.623047 0)"/>
     <use xlink:href="#DejaVuSans-36" transform="translate(127.246094 0)"/>
    </g>
   </g>
   <g id="text_22">
    <!-- 898 -->
    <g transform="translate(705.557959 169.967078) scale(0.09 -0.09)">
     <use xlink:href="#DejaVuSans-38"/>
     <use xlink:href="#DejaVuSans-39" transform="translate(63.623047 0)"/>
     <use xlink:href="#DejaVuSans-38" transform="translate(127.246094 0)"/>
    </g>
   </g>
   <g id="text_23">
    <!-- 1995 -->
    <g transform="translate(787.824655 55.090401) scale(0.09 -0.09)">
     <use xlink:href="#DejaVuSans-31"/>
     <use xlink:href="#DejaVuSans-39" transform="translate(63.623047 0)"/>
     <use xlink:href="#DejaVuSans-39" transform="translate(127.246094 0)"/>
     <use xlink:href="#DejaVuSans-35" transform="translate(190.869141 0)"/>
    </g>
   </g>
   <g id="text_24">
    <!-- Word Count Evolution -->
    <g transform="translate(597.914611 41.04) scale(0.12 -0.12)">
     <defs>
      <path id="DejaVuSans-Bold-57" d="M 191 4666 
L 1344 4666 
L 2150 1275 
L 2950 4666 
L 4109 4666 
L 4909 1275 
L 5716 4666 
L 6859 4666 
L 5759 0 
L 4372 0 
L 3525 3547 
L 2688 0 
L 1300 0 
L 191 4666 
z
" transform="scale(0.015625)"/>
      <path id="DejaVuSans-Bold-64" d="M 2919 2988 
L 2919 4863 
L 4044 4863 
L 4044 0 
L 2919 0 
L 2919 506 
Q 2688 197 2409 53 
Q 2131 -91 1766 -91 
Q 1119 -91 703 423 
Q 288 938 288 1747 
Q 288 2556 703 3070 
Q 1119 3584 1766 3584 
Q 2128 3584 2408 3439 
Q 2688 3294 2919 2988 
z
M 2181 722 
Q 2541 722 2730 984 
Q 2919 1247 2919 1747 
Q 2919 2247 2730 2509 
Q 2541 2772 2181 2772 
Q 1825 2772 1636 2509 
Q 1447 2247 1447 1747 
Q 1447 1247 1636 984 
Q 1825 722 2181 722 
z
" transform="scale(0.015625)"/>
      <path id="DejaVuSans-Bold-75" d="M 500 1363 
L 500 3500 
L 1625 3500 
L 1625 3150 
Q 1625 2866 1622 2436 
Q 1619 2006 1619 1863 
Q 1619 1441 1641 1255 
Q 1663 1069 1716 984 
Q 1784 875 1895 815 
Q 2006 756 2150 756 
Q 2500 756 2700 1025 
Q 2900 1294 2900 1772 
L 2900 3500 
L 4019 3500 
L 4019 0 
L 2900 0 
L 2900 506 
Q 2647 200 2364 54 
Q 2081 -91 1741 -91 
Q 1134 -91 817 281 
Q 500 653 500 1363 
z
" transform="scale(0.015625)"/>
      <path id="DejaVuSans-Bold-45" d="M 588 4666 
L 3834 4666 
L 3834 3756 
L 1791 3756 
L 1791 2888 
L 3713 2888 
L 3713 1978 
L 1791 1978 
L 1791 909 
L 3903 909 
L 3903 0 
L 588 0 
L 588 4666 
z
" transform="scale(0.015625)"/>
      <path id="DejaVuSans-Bold-76" d="M 97 3500 
L 1216 3500 
L 2088 1081 
L 2956 3500 
L 4078 3500 
L 2700 0 
L 1472 0 
L 97 3500 
z
" transform="scale(0.015625)"/>
      <path id="DejaVuSans-Bold-6c" d="M 538 4863 
L 1656 4863 
L 1656 0 
L 538 0 
L 538 4863 
z
" transform="scale(0.015625)"/>
     </defs>
     <use xlink:href="#DejaVuSans-Bold-57"/>
     <use xlink:href="#DejaVuSans-Bold-6f" transform="translate(106.677734 0)"/>
     <use xlink:href="#DejaVuSans-Bold-72" transform="translate(175.378906 0)"/>
     <use xlink:href="#DejaVuSans-Bold-64" transform="translate(224.695312 0)"/>
     <use xlink:href="#DejaVuSans-Bold-20" transform="translate(296.277344 0)"/>
     <use xlink:href="#DejaVuSans-Bold-43" transform="translate(331.091797 0)"/>
     <use xlink:href="#DejaVuSans-Bold-6f" transform="translate(404.480469 0)"/>
     <use xlink:href="#DejaVuSans-Bold-75" transform="translate(473.181641 0)"/>
     <use xlink:href="#DejaVuSans-Bold-6e" transform="translate(544.373047 0)"/>
     <use xlink:href="#DejaVuSans-Bold-74" transform="translate(615.564453 0)"/>
     <use xlink:href="#DejaVuSans-Bold-20" transform="translate(663.367188 0)"/>
     <use xlink:href="#DejaVuSans-Bold-45" transform="translate(698.181641 0)"/>
     <use xlink:href="#DejaVuSans-Bold-76" transform="translate(766.492188 0)"/>
     <use xlink:href="#DejaVuSans-Bold-6f" transform="translate(831.677734 0)"/>
     <use xlink:href="#DejaVuSans-Bold-6c" transform="translate(900.378906 0)"/>
     <use xlink:href="#DejaVuSans-Bold-75" transform="translate(934.65625 0)"/>
     <use xlink:href="#DejaVuSans-Bold-74" transform="translate(1005.847656 0)"/>
     <use xlink:href="#DejaVuSans-Bold-69" transform="translate(1053.650391 0)"/>
     <use xlink:href="#DejaVuSans-Bold-6f" transform="translate(1087.927734 0)"/>
     <use xlink:href="#DejaVuSans-Bold-6e" transform="translate(1156.628906 0)"/>
    </g>
   </g>
  </g>
  <g id="axes_3">
   <g id="patch_15">
    <path d="M 104.64375 529.72 
L 460.486404 529.72 
L 460.486404 310.36 
L 104.64375 310.36 
z
" style="fill: #ffffff"/>
   </g>
   <g id="patch_16">
    <path d="M 104.64375 519.749091 
L 104.64375 519.749091 
L 104.64375 477.766316 
L 104.64375 477.766316 
z
" clip-path="url(#p54006dfb01)" style="fill: #c73e1d; opacity: 0.7"/>
   </g>
   <g id="patch_17">
    <path d="M 104.64375 467.270622 
L 118.618916 467.270622 
L 118.618916 425.287847 
L 104.64375 425.287847 
z
" clip-path="url(#p54006dfb01)" style="fill: #c73e1d; opacity: 0.7"/>
   </g>
   <g id="patch_18">
    <path d="M 104.64375 414.792153 
L 205.9637 414.792153 
L 205.9637 372.809378 
L 104.64375 372.809378 
z
" clip-path="url(#p54006dfb01)" style="fill: #c73e1d; opacity: 0.7"/>
   </g>
   <g id="patch_19">
    <path d="M 104.64375 362.313684 
L 443.541515 362.313684 
L 443.541515 320.330909 
L 104.64375 320.330909 
z
" clip-path="url(#p54006dfb01)" style="fill: #c73e1d; opacity: 0.7"/>
   </g>
   <g id="matplotlib.axis_5">
    <g id="xtick_5">
     <g id="line2d_14">
      <g>
       <use xlink:href="#m078594bfc7" x="104.64375" y="529.72" style="stroke: #000000; stroke-width: 0.8"/>
      </g>
     </g>
     <g id="text_25">
      <!-- 0 -->
      <g transform="translate(101.4625 544.318437) scale(0.1 -0.1)">
       <use xlink:href="#DejaVuSans-30"/>
      </g>
     </g>
    </g>
    <g id="xtick_6">
     <g id="line2d_15">
      <g>
       <use xlink:href="#m078594bfc7" x="150.063038" y="529.72" style="stroke: #000000; stroke-width: 0.8"/>
      </g>
     </g>
     <g id="text_26">
      <!-- 10 -->
      <g transform="translate(143.700538 544.318437) scale(0.1 -0.1)">
       <use xlink:href="#DejaVuSans-31"/>
       <use xlink:href="#DejaVuSans-30" transform="translate(63.623047 0)"/>
      </g>
     </g>
    </g>
    <g id="xtick_7">
     <g id="line2d_16">
      <g>
       <use xlink:href="#m078594bfc7" x="195.482326" y="529.72" style="stroke: #000000; stroke-width: 0.8"/>
      </g>
     </g>
     <g id="text_27">
      <!-- 20 -->
      <g transform="translate(189.119826 544.318437) scale(0.1 -0.1)">
       <use xlink:href="#DejaVuSans-32"/>
       <use xlink:href="#DejaVuSans-30" transform="translate(63.623047 0)"/>
      </g>
     </g>
    </g>
    <g id="xtick_8">
     <g id="line2d_17">
      <g>
       <use xlink:href="#m078594bfc7" x="240.901614" y="529.72" style="stroke: #000000; stroke-width: 0.8"/>
      </g>
     </g>
     <g id="text_28">
      <!-- 30 -->
      <g transform="translate(234.539114 544.318437) scale(0.1 -0.1)">
       <defs>
        <path id="DejaVuSans-33" d="M 2597 2516 
Q 3050 2419 3304 2112 
Q 3559 1806 3559 1356 
Q 3559 666 3084 287 
Q 2609 -91 1734 -91 
Q 1441 -91 1130 -33 
Q 819 25 488 141 
L 488 750 
Q 750 597 1062 519 
Q 1375 441 1716 441 
Q 2309 441 2620 675 
Q 2931 909 2931 1356 
Q 2931 1769 2642 2001 
Q 2353 2234 1838 2234 
L 1294 2234 
L 1294 2753 
L 1863 2753 
Q 2328 2753 2575 2939 
Q 2822 3125 2822 3475 
Q 2822 3834 2567 4026 
Q 2313 4219 1838 4219 
Q 1578 4219 1281 4162 
Q 984 4106 628 3988 
L 628 4550 
Q 988 4650 1302 4700 
Q 1616 4750 1894 4750 
Q 2613 4750 3031 4423 
Q 3450 4097 3450 3541 
Q 3450 3153 3228 2886 
Q 3006 2619 2597 2516 
z
" transform="scale(0.015625)"/>
       </defs>
       <use xlink:href="#DejaVuSans-33"/>
       <use xlink:href="#DejaVuSans-30" transform="translate(63.623047 0)"/>
      </g>
     </g>
    </g>
    <g id="xtick_9">
     <g id="line2d_18">
      <g>
       <use xlink:href="#m078594bfc7" x="286.320903" y="529.72" style="stroke: #000000; stroke-width: 0.8"/>
      </g>
     </g>
     <g id="text_29">
      <!-- 40 -->
      <g transform="translate(279.958403 544.318437) scale(0.1 -0.1)">
       <use xlink:href="#DejaVuSans-34"/>
       <use xlink:href="#DejaVuSans-30" transform="translate(63.623047 0)"/>
      </g>
     </g>
    </g>
    <g id="xtick_10">
     <g id="line2d_19">
      <g>
       <use xlink:href="#m078594bfc7" x="331.740191" y="529.72" style="stroke: #000000; stroke-width: 0.8"/>
      </g>
     </g>
     <g id="text_30">
      <!-- 50 -->
      <g transform="translate(325.377691 544.318437) scale(0.1 -0.1)">
       <use xlink:href="#DejaVuSans-35"/>
       <use xlink:href="#DejaVuSans-30" transform="translate(63.623047 0)"/>
      </g>
     </g>
    </g>
    <g id="xtick_11">
     <g id="line2d_20">
      <g>
       <use xlink:href="#m078594bfc7" x="377.159479" y="529.72" style="stroke: #000000; stroke-width: 0.8"/>
      </g>
     </g>
     <g id="text_31">
      <!-- 60 -->
      <g transform="translate(370.796979 544.318437) scale(0.1 -0.1)">
       <use xlink:href="#DejaVuSans-36"/>
       <use xlink:href="#DejaVuSans-30" transform="translate(63.623047 0)"/>
      </g>
     </g>
    </g>
    <g id="xtick_12">
     <g id="line2d_21">
      <g>
       <use xlink:href="#m078594bfc7" x="422.578767" y="529.72" style="stroke: #000000; stroke-width: 0.8"/>
      </g>
     </g>
     <g id="text_32">
      <!-- 70 -->
      <g transform="translate(416.216267 544.318437) scale(0.1 -0.1)">
       <use xlink:href="#DejaVuSans-37"/>
       <use xlink:href="#DejaVuSans-30" transform="translate(63.623047 0)"/>
      </g>
     </g>
    </g>
    <g id="text_33">
     <!-- Percentage -->
     <g transform="translate(254.442421 557.996562) scale(0.1 -0.1)">
      <defs>
       <path id="DejaVuSans-50" d="M 1259 4147 
L 1259 2394 
L 2053 2394 
Q 2494 2394 2734 2622 
Q 2975 2850 2975 3272 
Q 2975 3691 2734 3919 
Q 2494 4147 2053 4147 
L 1259 4147 
z
M 628 4666 
L 2053 4666 
Q 2838 4666 3239 4311 
Q 3641 3956 3641 3272 
Q 3641 2581 3239 2228 
Q 2838 1875 2053 1875 
L 1259 1875 
L 1259 0 
L 628 0 
L 628 4666 
z
" transform="scale(0.015625)"/>
       <path id="DejaVuSans-63" d="M 3122 3366 
L 3122 2828 
Q 2878 2963 2633 3030 
Q 2388 3097 2138 3097 
Q 1578 3097 1268 2742 
Q 959 2388 959 1747 
Q 959 1106 1268 751 
Q 1578 397 2138 397 
Q 2388 397 2633 464 
Q 2878 531 3122 666 
L 3122 134 
Q 2881 22 2623 -34 
Q 2366 -91 2075 -91 
Q 1284 -91 818 406 
Q 353 903 353 1747 
Q 353 2603 823 3093 
Q 1294 3584 2113 3584 
Q 2378 3584 2631 3529 
Q 2884 3475 3122 3366 
z
" transform="scale(0.015625)"/>
       <path id="DejaVuSans-67" d="M 2906 1791 
Q 2906 2416 2648 2759 
Q 2391 3103 1925 3103 
Q 1463 3103 1205 2759 
Q 947 2416 947 1791 
Q 947 1169 1205 825 
Q 1463 481 1925 481 
Q 2391 481 2648 825 
Q 2906 1169 2906 1791 
z
M 3481 434 
Q 3481 -459 3084 -895 
Q 2688 -1331 1869 -1331 
Q 1566 -1331 1297 -1286 
Q 1028 -1241 775 -1147 
L 775 -588 
Q 1028 -725 1275 -790 
Q 1522 -856 1778 -856 
Q 2344 -856 2625 -561 
Q 2906 -266 2906 331 
L 2906 616 
Q 2728 306 2450 153 
Q 2172 0 1784 0 
Q 1141 0 747 490 
Q 353 981 353 1791 
Q 353 2603 747 3093 
Q 1141 3584 1784 3584 
Q 2172 3584 2450 3431 
Q 2728 3278 2906 2969 
L 2906 3500 
L 3481 3500 
L 3481 434 
z
" transform="scale(0.015625)"/>
      </defs>
      <use xlink:href="#DejaVuSans-50"/>
      <use xlink:href="#DejaVuSans-65" transform="translate(56.677734 0)"/>
      <use xlink:href="#DejaVuSans-72" transform="translate(118.201172 0)"/>
      <use xlink:href="#DejaVuSans-63" transform="translate(157.064453 0)"/>
      <use xlink:href="#DejaVuSans-65" transform="translate(212.044922 0)"/>
      <use xlink:href="#DejaVuSans-6e" transform="translate(273.568359 0)"/>
      <use xlink:href="#DejaVuSans-74" transform="translate(336.947266 0)"/>
      <use xlink:href="#DejaVuSans-61" transform="translate(376.15625 0)"/>
      <use xlink:href="#DejaVuSans-67" transform="translate(437.435547 0)"/>
      <use xlink:href="#DejaVuSans-65" transform="translate(500.912109 0)"/>
     </g>
    </g>
   </g>
   <g id="matplotlib.axis_6">
    <g id="ytick_10">
     <g id="line2d_22">
      <g>
       <use xlink:href="#mfcb41181b3" x="104.64375" y="498.757703" style="stroke: #000000; stroke-width: 0.8"/>
      </g>
     </g>
     <g id="text_34">
      <!-- High Similarity -->
      <g transform="translate(24.201563 502.556922) scale(0.1 -0.1)">
       <defs>
        <path id="DejaVuSans-48" d="M 628 4666 
L 1259 4666 
L 1259 2753 
L 3553 2753 
L 3553 4666 
L 4184 4666 
L 4184 0 
L 3553 0 
L 3553 2222 
L 1259 2222 
L 1259 0 
L 628 0 
L 628 4666 
z
" transform="scale(0.015625)"/>
        <path id="DejaVuSans-68" d="M 3513 2113 
L 3513 0 
L 2938 0 
L 2938 2094 
Q 2938 2591 2744 2837 
Q 2550 3084 2163 3084 
Q 1697 3084 1428 2787 
Q 1159 2491 1159 1978 
L 1159 0 
L 581 0 
L 581 4863 
L 1159 4863 
L 1159 2956 
Q 1366 3272 1645 3428 
Q 1925 3584 2291 3584 
Q 2894 3584 3203 3211 
Q 3513 2838 3513 2113 
z
" transform="scale(0.015625)"/>
        <path id="DejaVuSans-53" d="M 3425 4513 
L 3425 3897 
Q 3066 4069 2747 4153 
Q 2428 4238 2131 4238 
Q 1616 4238 1336 4038 
Q 1056 3838 1056 3469 
Q 1056 3159 1242 3001 
Q 1428 2844 1947 2747 
L 2328 2669 
Q 3034 2534 3370 2195 
Q 3706 1856 3706 1288 
Q 3706 609 3251 259 
Q 2797 -91 1919 -91 
Q 1588 -91 1214 -16 
Q 841 59 441 206 
L 441 856 
Q 825 641 1194 531 
Q 1563 422 1919 422 
Q 2459 422 2753 634 
Q 3047 847 3047 1241 
Q 3047 1584 2836 1778 
Q 2625 1972 2144 2069 
L 1759 2144 
Q 1053 2284 737 2584 
Q 422 2884 422 3419 
Q 422 4038 858 4394 
Q 1294 4750 2059 4750 
Q 2388 4750 2728 4690 
Q 3069 4631 3425 4513 
z
" transform="scale(0.015625)"/>
        <path id="DejaVuSans-6d" d="M 3328 2828 
Q 3544 3216 3844 3400 
Q 4144 3584 4550 3584 
Q 5097 3584 5394 3201 
Q 5691 2819 5691 2113 
L 5691 0 
L 5113 0 
L 5113 2094 
Q 5113 2597 4934 2840 
Q 4756 3084 4391 3084 
Q 3944 3084 3684 2787 
Q 3425 2491 3425 1978 
L 3425 0 
L 2847 0 
L 2847 2094 
Q 2847 2600 2669 2842 
Q 2491 3084 2119 3084 
Q 1678 3084 1418 2786 
Q 1159 2488 1159 1978 
L 1159 0 
L 581 0 
L 581 3500 
L 1159 3500 
L 1159 2956 
Q 1356 3278 1631 3431 
Q 1906 3584 2284 3584 
Q 2666 3584 2933 3390 
Q 3200 3197 3328 2828 
z
" transform="scale(0.015625)"/>
        <path id="DejaVuSans-79" d="M 2059 -325 
Q 1816 -950 1584 -1140 
Q 1353 -1331 966 -1331 
L 506 -1331 
L 506 -850 
L 844 -850 
Q 1081 -850 1212 -737 
Q 1344 -625 1503 -206 
L 1606 56 
L 191 3500 
L 800 3500 
L 1894 763 
L 2988 3500 
L 3597 3500 
L 2059 -325 
z
" transform="scale(0.015625)"/>
       </defs>
       <use xlink:href="#DejaVuSans-48"/>
       <use xlink:href="#DejaVuSans-69" transform="translate(75.195312 0)"/>
       <use xlink:href="#DejaVuSans-67" transform="translate(102.978516 0)"/>
       <use xlink:href="#DejaVuSans-68" transform="translate(166.455078 0)"/>
       <use xlink:href="#DejaVuSans-20" transform="translate(229.833984 0)"/>
       <use xlink:href="#DejaVuSans-53" transform="translate(261.621094 0)"/>
       <use xlink:href="#DejaVuSans-69" transform="translate(325.097656 0)"/>
       <use xlink:href="#DejaVuSans-6d" transform="translate(352.880859 0)"/>
       <use xlink:href="#DejaVuSans-69" transform="translate(450.292969 0)"/>
       <use xlink:href="#DejaVuSans-6c" transform="translate(478.076172 0)"/>
       <use xlink:href="#DejaVuSans-61" transform="translate(505.859375 0)"/>
       <use xlink:href="#DejaVuSans-72" transform="translate(567.138672 0)"/>
       <use xlink:href="#DejaVuSans-69" transform="translate(608.251953 0)"/>
       <use xlink:href="#DejaVuSans-74" transform="translate(636.035156 0)"/>
       <use xlink:href="#DejaVuSans-79" transform="translate(675.244141 0)"/>
      </g>
     </g>
    </g>
    <g id="ytick_11">
     <g id="line2d_23">
      <g>
       <use xlink:href="#mfcb41181b3" x="104.64375" y="446.279234" style="stroke: #000000; stroke-width: 0.8"/>
      </g>
     </g>
     <g id="text_35">
      <!-- Medium Similarity -->
      <g transform="translate(7.2 450.078453) scale(0.1 -0.1)">
       <defs>
        <path id="DejaVuSans-4d" d="M 628 4666 
L 1569 4666 
L 2759 1491 
L 3956 4666 
L 4897 4666 
L 4897 0 
L 4281 0 
L 4281 4097 
L 3078 897 
L 2444 897 
L 1241 4097 
L 1241 0 
L 628 0 
L 628 4666 
z
" transform="scale(0.015625)"/>
        <path id="DejaVuSans-75" d="M 544 1381 
L 544 3500 
L 1119 3500 
L 1119 1403 
Q 1119 906 1312 657 
Q 1506 409 1894 409 
Q 2359 409 2629 706 
Q 2900 1003 2900 1516 
L 2900 3500 
L 3475 3500 
L 3475 0 
L 2900 0 
L 2900 538 
Q 2691 219 2414 64 
Q 2138 -91 1772 -91 
Q 1169 -91 856 284 
Q 544 659 544 1381 
z
M 1991 3584 
L 1991 3584 
z
" transform="scale(0.015625)"/>
       </defs>
       <use xlink:href="#DejaVuSans-4d"/>
       <use xlink:href="#DejaVuSans-65" transform="translate(86.279297 0)"/>
       <use xlink:href="#DejaVuSans-64" transform="translate(147.802734 0)"/>
       <use xlink:href="#DejaVuSans-69" transform="translate(211.279297 0)"/>
       <use xlink:href="#DejaVuSans-75" transform="translate(239.0625 0)"/>
       <use xlink:href="#DejaVuSans-6d" transform="translate(302.441406 0)"/>
       <use xlink:href="#DejaVuSans-20" transform="translate(399.853516 0)"/>
       <use xlink:href="#DejaVuSans-53" transform="translate(431.640625 0)"/>
       <use xlink:href="#DejaVuSans-69" transform="translate(495.117188 0)"/>
       <use xlink:href="#DejaVuSans-6d" transform="translate(522.900391 0)"/>
       <use xlink:href="#DejaVuSans-69" transform="translate(620.3125 0)"/>
       <use xlink:href="#DejaVuSans-6c" transform="translate(648.095703 0)"/>
       <use xlink:href="#DejaVuSans-61" transform="translate(675.878906 0)"/>
       <use xlink:href="#DejaVuSans-72" transform="translate(737.158203 0)"/>
       <use xlink:href="#DejaVuSans-69" transform="translate(778.271484 0)"/>
       <use xlink:href="#DejaVuSans-74" transform="translate(806.054688 0)"/>
       <use xlink:href="#DejaVuSans-79" transform="translate(845.263672 0)"/>
      </g>
     </g>
    </g>
    <g id="ytick_12">
     <g id="line2d_24">
      <g>
       <use xlink:href="#mfcb41181b3" x="104.64375" y="393.800766" style="stroke: #000000; stroke-width: 0.8"/>
      </g>
     </g>
     <g id="text_36">
      <!-- Low Similarity -->
      <g transform="translate(27.492188 397.599984) scale(0.1 -0.1)">
       <defs>
        <path id="DejaVuSans-4c" d="M 628 4666 
L 1259 4666 
L 1259 531 
L 3531 531 
L 3531 0 
L 628 0 
L 628 4666 
z
" transform="scale(0.015625)"/>
       </defs>
       <use xlink:href="#DejaVuSans-4c"/>
       <use xlink:href="#DejaVuSans-6f" transform="translate(53.962891 0)"/>
       <use xlink:href="#DejaVuSans-77" transform="translate(115.144531 0)"/>
       <use xlink:href="#DejaVuSans-20" transform="translate(196.931641 0)"/>
       <use xlink:href="#DejaVuSans-53" transform="translate(228.71875 0)"/>
       <use xlink:href="#DejaVuSans-69" transform="translate(292.195312 0)"/>
       <use xlink:href="#DejaVuSans-6d" transform="translate(319.978516 0)"/>
       <use xlink:href="#DejaVuSans-69" transform="translate(417.390625 0)"/>
       <use xlink:href="#DejaVuSans-6c" transform="translate(445.173828 0)"/>
       <use xlink:href="#DejaVuSans-61" transform="translate(472.957031 0)"/>
       <use xlink:href="#DejaVuSans-72" transform="translate(534.236328 0)"/>
       <use xlink:href="#DejaVuSans-69" transform="translate(575.349609 0)"/>
       <use xlink:href="#DejaVuSans-74" transform="translate(603.132812 0)"/>
       <use xlink:href="#DejaVuSans-79" transform="translate(642.341797 0)"/>
      </g>
     </g>
    </g>
    <g id="ytick_13">
     <g id="line2d_25">
      <g>
       <use xlink:href="#mfcb41181b3" x="104.64375" y="341.322297" style="stroke: #000000; stroke-width: 0.8"/>
      </g>
     </g>
     <g id="text_37">
      <!-- New Content -->
      <g transform="translate(32.882813 345.121515) scale(0.1 -0.1)">
       <use xlink:href="#DejaVuSans-4e"/>
       <use xlink:href="#DejaVuSans-65" transform="translate(74.804688 0)"/>
       <use xlink:href="#DejaVuSans-77" transform="translate(136.328125 0)"/>
       <use xlink:href="#DejaVuSans-20" transform="translate(218.115234 0)"/>
       <use xlink:href="#DejaVuSans-43" transform="translate(249.902344 0)"/>
       <use xlink:href="#DejaVuSans-6f" transform="translate(319.726562 0)"/>
       <use xlink:href="#DejaVuSans-6e" transform="translate(380.908203 0)"/>
       <use xlink:href="#DejaVuSans-74" transform="translate(444.287109 0)"/>
       <use xlink:href="#DejaVuSans-65" transform="translate(483.496094 0)"/>
       <use xlink:href="#DejaVuSans-6e" transform="translate(545.019531 0)"/>
       <use xlink:href="#DejaVuSans-74" transform="translate(608.398438 0)"/>
      </g>
     </g>
    </g>
   </g>
   <g id="patch_20">
    <path d="M 104.64375 529.72 
L 104.64375 310.36 
" style="fill: none; stroke: #000000; stroke-width: 0.8; stroke-linejoin: miter; stroke-linecap: square"/>
   </g>
   <g id="patch_21">
    <path d="M 460.486404 529.72 
L 460.486404 310.36 
" style="fill: none; stroke: #000000; stroke-width: 0.8; stroke-linejoin: miter; stroke-linecap: square"/>
   </g>
   <g id="patch_22">
    <path d="M 104.64375 529.72 
L 460.486404 529.72 
" style="fill: none; stroke: #000000; stroke-width: 0.8; stroke-linejoin: miter; stroke-linecap: square"/>
   </g>
   <g id="patch_23">
    <path d="M 104.64375 310.36 
L 460.486404 310.36 
" style="fill: none; stroke: #000000; stroke-width: 0.8; stroke-linejoin: miter; stroke-linecap: square"/>
   </g>
   <g id="text_38">
    <!-- 0.0% -->
    <g transform="translate(109.185679 501.241141) scale(0.09 -0.09)">
     <use xlink:href="#DejaVuSans-30"/>
     <use xlink:href="#DejaVuSans-2e" transform="translate(63.623047 0)"/>
     <use xlink:href="#DejaVuSans-30" transform="translate(95.410156 0)"/>
     <use xlink:href="#DejaVuSans-25" transform="translate(159.033203 0)"/>
    </g>
   </g>
   <g id="text_39">
    <!-- 3.1% -->
    <g transform="translate(123.160844 448.762672) scale(0.09 -0.09)">
     <use xlink:href="#DejaVuSans-33"/>
     <use xlink:href="#DejaVuSans-2e" transform="translate(63.623047 0)"/>
     <use xlink:href="#DejaVuSans-31" transform="translate(95.410156 0)"/>
     <use xlink:href="#DejaVuSans-25" transform="translate(159.033203 0)"/>
    </g>
   </g>
   <g id="text_40">
    <!-- 22.3% -->
    <g transform="translate(210.505629 396.284203) scale(0.09 -0.09)">
     <use xlink:href="#DejaVuSans-32"/>
     <use xlink:href="#DejaVuSans-32" transform="translate(63.623047 0)"/>
     <use xlink:href="#DejaVuSans-2e" transform="translate(127.246094 0)"/>
     <use xlink:href="#DejaVuSans-33" transform="translate(159.033203 0)"/>
     <use xlink:href="#DejaVuSans-25" transform="translate(222.65625 0)"/>
    </g>
   </g>
   <g id="text_41">
    <!-- 74.6% -->
    <g transform="translate(448.083444 343.805734) scale(0.09 -0.09)">
     <use xlink:href="#DejaVuSans-37"/>
     <use xlink:href="#DejaVuSans-34" transform="translate(63.623047 0)"/>
     <use xlink:href="#DejaVuSans-2e" transform="translate(127.246094 0)"/>
     <use xlink:href="#DejaVuSans-36" transform="translate(159.033203 0)"/>
     <use xlink:href="#DejaVuSans-25" transform="translate(222.65625 0)"/>
    </g>
   </g>
   <g id="text_42">
    <!-- Modification Levels -->
    <g transform="translate(216.939139 304.36) scale(0.12 -0.12)">
     <defs>
      <path id="DejaVuSans-Bold-4d" d="M 588 4666 
L 2119 4666 
L 3181 2169 
L 4250 4666 
L 5778 4666 
L 5778 0 
L 4641 0 
L 4641 3413 
L 3566 897 
L 2803 897 
L 1728 3413 
L 1728 0 
L 588 0 
L 588 4666 
z
" transform="scale(0.015625)"/>
      <path id="DejaVuSans-Bold-66" d="M 2841 4863 
L 2841 4128 
L 2222 4128 
Q 1984 4128 1890 4042 
Q 1797 3956 1797 3744 
L 1797 3500 
L 2753 3500 
L 2753 2700 
L 1797 2700 
L 1797 0 
L 678 0 
L 678 2700 
L 122 2700 
L 122 3500 
L 678 3500 
L 678 3744 
Q 678 4316 997 4589 
Q 1316 4863 1984 4863 
L 2841 4863 
z
" transform="scale(0.015625)"/>
      <path id="DejaVuSans-Bold-63" d="M 3366 3391 
L 3366 2478 
Q 3138 2634 2908 2709 
Q 2678 2784 2431 2784 
Q 1963 2784 1702 2511 
Q 1441 2238 1441 1747 
Q 1441 1256 1702 982 
Q 1963 709 2431 709 
Q 2694 709 2930 787 
Q 3166 866 3366 1019 
L 3366 103 
Q 3103 6 2833 -42 
Q 2563 -91 2291 -91 
Q 1344 -91 809 395 
Q 275 881 275 1747 
Q 275 2613 809 3098 
Q 1344 3584 2291 3584 
Q 2566 3584 2833 3536 
Q 3100 3488 3366 3391 
z
" transform="scale(0.015625)"/>
      <path id="DejaVuSans-Bold-61" d="M 2106 1575 
Q 1756 1575 1579 1456 
Q 1403 1338 1403 1106 
Q 1403 894 1545 773 
Q 1688 653 1941 653 
Q 2256 653 2472 879 
Q 2688 1106 2688 1447 
L 2688 1575 
L 2106 1575 
z
M 3816 1997 
L 3816 0 
L 2688 0 
L 2688 519 
Q 2463 200 2181 54 
Q 1900 -91 1497 -91 
Q 953 -91 614 226 
Q 275 544 275 1050 
Q 275 1666 698 1953 
Q 1122 2241 2028 2241 
L 2688 2241 
L 2688 2328 
Q 2688 2594 2478 2717 
Q 2269 2841 1825 2841 
Q 1466 2841 1156 2769 
Q 847 2697 581 2553 
L 581 3406 
Q 941 3494 1303 3539 
Q 1666 3584 2028 3584 
Q 2975 3584 3395 3211 
Q 3816 2838 3816 1997 
z
" transform="scale(0.015625)"/>
      <path id="DejaVuSans-Bold-4c" d="M 588 4666 
L 1791 4666 
L 1791 909 
L 3903 909 
L 3903 0 
L 588 0 
L 588 4666 
z
" transform="scale(0.015625)"/>
     </defs>
     <use xlink:href="#DejaVuSans-Bold-4d"/>
     <use xlink:href="#DejaVuSans-Bold-6f" transform="translate(99.511719 0)"/>
     <use xlink:href="#DejaVuSans-Bold-64" transform="translate(168.212891 0)"/>
     <use xlink:href="#DejaVuSans-Bold-69" transform="translate(239.794922 0)"/>
     <use xlink:href="#DejaVuSans-Bold-66" transform="translate(274.072266 0)"/>
     <use xlink:href="#DejaVuSans-Bold-69" transform="translate(317.578125 0)"/>
     <use xlink:href="#DejaVuSans-Bold-63" transform="translate(351.855469 0)"/>
     <use xlink:href="#DejaVuSans-Bold-61" transform="translate(411.132812 0)"/>
     <use xlink:href="#DejaVuSans-Bold-74" transform="translate(478.613281 0)"/>
     <use xlink:href="#DejaVuSans-Bold-69" transform="translate(526.416016 0)"/>
     <use xlink:href="#DejaVuSans-Bold-6f" transform="translate(560.693359 0)"/>
     <use xlink:href="#DejaVuSans-Bold-6e" transform="translate(629.394531 0)"/>
     <use xlink:href="#DejaVuSans-Bold-20" transform="translate(700.585938 0)"/>
     <use xlink:href="#DejaVuSans-Bold-4c" transform="translate(735.400391 0)"/>
     <use xlink:href="#DejaVuSans-Bold-65" transform="translate(799.121094 0)"/>
     <use xlink:href="#DejaVuSans-Bold-76" transform="translate(866.943359 0)"/>
     <use xlink:href="#DejaVuSans-Bold-65" transform="translate(932.128906 0)"/>
     <use xlink:href="#DejaVuSans-Bold-6c" transform="translate(999.951172 0)"/>
     <use xlink:href="#DejaVuSans-Bold-73" transform="translate(1034.228516 0)"/>
    </g>
   </g>
  </g>
  <g id="axes_4">
   <g id="text_43">
    <g id="patch_24">
     <path d="M 529.245362 447.326437 
L 708.141456 447.326437 
Q 713.641456 447.326437 713.641456 441.826437 
L 713.641456 332.296 
Q 713.641456 326.796 708.141456 326.796 
L 529.245362 326.796 
Q 523.745362 326.796 523.745362 332.296 
L 523.745362 441.826437 
Q 523.745362 447.326437 529.245362 447.326437 
z
" style="fill: #d3d3d3; opacity: 0.3; stroke: #000000; stroke-linejoin: miter"/>
    </g>
    <!-- Key Metrics: -->
    <g transform="translate(529.245362 340.654281) scale(0.11 -0.11)">
     <defs>
      <path id="DejaVuSans-Bold-4b" d="M 588 4666 
L 1791 4666 
L 1791 2963 
L 3525 4666 
L 4922 4666 
L 2675 2456 
L 5153 0 
L 3647 0 
L 1791 1838 
L 1791 0 
L 588 0 
L 588 4666 
z
" transform="scale(0.015625)"/>
      <path id="DejaVuSans-Bold-79" d="M 78 3500 
L 1197 3500 
L 2138 1125 
L 2938 3500 
L 4056 3500 
L 2584 -331 
Q 2363 -916 2067 -1148 
Q 1772 -1381 1288 -1381 
L 641 -1381 
L 641 -647 
L 991 -647 
Q 1275 -647 1404 -556 
Q 1534 -466 1606 -231 
L 1638 -134 
L 78 3500 
z
" transform="scale(0.015625)"/>
      <path id="DejaVuSans-Bold-3a" d="M 716 3500 
L 1844 3500 
L 1844 2291 
L 716 2291 
L 716 3500 
z
M 716 1209 
L 1844 1209 
L 1844 0 
L 716 0 
L 716 1209 
z
" transform="scale(0.015625)"/>
     </defs>
     <use xlink:href="#DejaVuSans-Bold-4b"/>
     <use xlink:href="#DejaVuSans-Bold-65" transform="translate(75.740234 0)"/>
     <use xlink:href="#DejaVuSans-Bold-79" transform="translate(143.5625 0)"/>
     <use xlink:href="#DejaVuSans-Bold-20" transform="translate(208.748047 0)"/>
     <use xlink:href="#DejaVuSans-Bold-4d" transform="translate(243.5625 0)"/>
     <use xlink:href="#DejaVuSans-Bold-65" transform="translate(343.074219 0)"/>
     <use xlink:href="#DejaVuSans-Bold-74" transform="translate(410.896484 0)"/>
     <use xlink:href="#DejaVuSans-Bold-72" transform="translate(458.699219 0)"/>
     <use xlink:href="#DejaVuSans-Bold-69" transform="translate(508.015625 0)"/>
     <use xlink:href="#DejaVuSans-Bold-63" transform="translate(542.292969 0)"/>
     <use xlink:href="#DejaVuSans-Bold-73" transform="translate(601.570312 0)"/>
     <use xlink:href="#DejaVuSans-Bold-3a" transform="translate(661.091797 0)"/>
    </g>
    <!--  -->
    <g transform="translate(529.245362 353.057812) scale(0.11 -0.11)"/>
    <!-- Draft-Final Similarity: 40.1% -->
    <g transform="translate(529.245362 365.375406) scale(0.11 -0.11)">
     <defs>
      <path id="DejaVuSans-Bold-44" d="M 1791 3756 
L 1791 909 
L 2222 909 
Q 2959 909 3348 1275 
Q 3738 1641 3738 2338 
Q 3738 3031 3350 3393 
Q 2963 3756 2222 3756 
L 1791 3756 
z
M 588 4666 
L 1856 4666 
Q 2919 4666 3439 4514 
Q 3959 4363 4331 4000 
Q 4659 3684 4818 3271 
Q 4978 2859 4978 2338 
Q 4978 1809 4818 1395 
Q 4659 981 4331 666 
Q 3956 303 3431 151 
Q 2906 0 1856 0 
L 588 0 
L 588 4666 
z
" transform="scale(0.015625)"/>
      <path id="DejaVuSans-Bold-2d" d="M 347 2297 
L 2309 2297 
L 2309 1388 
L 347 1388 
L 347 2297 
z
" transform="scale(0.015625)"/>
      <path id="DejaVuSans-Bold-46" d="M 588 4666 
L 3834 4666 
L 3834 3756 
L 1791 3756 
L 1791 2888 
L 3713 2888 
L 3713 1978 
L 1791 1978 
L 1791 0 
L 588 0 
L 588 4666 
z
" transform="scale(0.015625)"/>
      <path id="DejaVuSans-Bold-53" d="M 3834 4519 
L 3834 3531 
Q 3450 3703 3084 3790 
Q 2719 3878 2394 3878 
Q 1963 3878 1756 3759 
Q 1550 3641 1550 3391 
Q 1550 3203 1689 3098 
Q 1828 2994 2194 2919 
L 2706 2816 
Q 3484 2659 3812 2340 
Q 4141 2022 4141 1434 
Q 4141 663 3683 286 
Q 3225 -91 2284 -91 
Q 1841 -91 1394 -6 
Q 947 78 500 244 
L 500 1259 
Q 947 1022 1364 901 
Q 1781 781 2169 781 
Q 2563 781 2772 912 
Q 2981 1044 2981 1288 
Q 2981 1506 2839 1625 
Q 2697 1744 2272 1838 
L 1806 1941 
Q 1106 2091 782 2419 
Q 459 2747 459 3303 
Q 459 4000 909 4375 
Q 1359 4750 2203 4750 
Q 2588 4750 2994 4692 
Q 3400 4634 3834 4519 
z
" transform="scale(0.015625)"/>
      <path id="DejaVuSans-Bold-6d" d="M 3781 2919 
Q 3994 3244 4286 3414 
Q 4578 3584 4928 3584 
Q 5531 3584 5847 3212 
Q 6163 2841 6163 2131 
L 6163 0 
L 5038 0 
L 5038 1825 
Q 5041 1866 5042 1909 
Q 5044 1953 5044 2034 
Q 5044 2406 4934 2573 
Q 4825 2741 4581 2741 
Q 4263 2741 4089 2478 
Q 3916 2216 3909 1719 
L 3909 0 
L 2784 0 
L 2784 1825 
Q 2784 2406 2684 2573 
Q 2584 2741 2328 2741 
Q 2006 2741 1831 2477 
Q 1656 2213 1656 1722 
L 1656 0 
L 531 0 
L 531 3500 
L 1656 3500 
L 1656 2988 
Q 1863 3284 2130 3434 
Q 2397 3584 2719 3584 
Q 3081 3584 3359 3409 
Q 3638 3234 3781 2919 
z
" transform="scale(0.015625)"/>
      <path id="DejaVuSans-Bold-34" d="M 2356 3675 
L 1038 1722 
L 2356 1722 
L 2356 3675 
z
M 2156 4666 
L 3494 4666 
L 3494 1722 
L 4159 1722 
L 4159 850 
L 3494 850 
L 3494 0 
L 2356 0 
L 2356 850 
L 288 850 
L 288 1881 
L 2156 4666 
z
" transform="scale(0.015625)"/>
      <path id="DejaVuSans-Bold-30" d="M 2944 2338 
Q 2944 3213 2780 3570 
Q 2616 3928 2228 3928 
Q 1841 3928 1675 3570 
Q 1509 3213 1509 2338 
Q 1509 1453 1675 1090 
Q 1841 728 2228 728 
Q 2613 728 2778 1090 
Q 2944 1453 2944 2338 
z
M 4147 2328 
Q 4147 1169 3647 539 
Q 3147 -91 2228 -91 
Q 1306 -91 806 539 
Q 306 1169 306 2328 
Q 306 3491 806 4120 
Q 1306 4750 2228 4750 
Q 3147 4750 3647 4120 
Q 4147 3491 4147 2328 
z
" transform="scale(0.015625)"/>
      <path id="DejaVuSans-Bold-2e" d="M 653 1209 
L 1778 1209 
L 1778 0 
L 653 0 
L 653 1209 
z
" transform="scale(0.015625)"/>
      <path id="DejaVuSans-Bold-31" d="M 750 831 
L 1813 831 
L 1813 3847 
L 722 3622 
L 722 4441 
L 1806 4666 
L 2950 4666 
L 2950 831 
L 4013 831 
L 4013 0 
L 750 0 
L 750 831 
z
" transform="scale(0.015625)"/>
      <path id="DejaVuSans-Bold-25" d="M 4959 1925 
Q 4738 1925 4616 1733 
Q 4494 1541 4494 1184 
Q 4494 825 4614 633 
Q 4734 441 4959 441 
Q 5184 441 5303 633 
Q 5422 825 5422 1184 
Q 5422 1541 5301 1733 
Q 5181 1925 4959 1925 
z
M 4959 2450 
Q 5541 2450 5875 2112 
Q 6209 1775 6209 1184 
Q 6209 594 5875 251 
Q 5541 -91 4959 -91 
Q 4378 -91 4042 251 
Q 3706 594 3706 1184 
Q 3706 1772 4042 2111 
Q 4378 2450 4959 2450 
z
M 2094 -91 
L 1403 -91 
L 4319 4750 
L 5013 4750 
L 2094 -91 
z
M 1453 4750 
Q 2034 4750 2367 4411 
Q 2700 4072 2700 3481 
Q 2700 2891 2367 2550 
Q 2034 2209 1453 2209 
Q 872 2209 539 2550 
Q 206 2891 206 3481 
Q 206 4072 539 4411 
Q 872 4750 1453 4750 
z
M 1453 4225 
Q 1228 4225 1106 4031 
Q 984 3838 984 3481 
Q 984 3122 1106 2926 
Q 1228 2731 1453 2731 
Q 1678 2731 1798 2926 
Q 1919 3122 1919 3481 
Q 1919 3838 1797 4031 
Q 1675 4225 1453 4225 
z
" transform="scale(0.015625)"/>
     </defs>
     <use xlink:href="#DejaVuSans-Bold-44"/>
     <use xlink:href="#DejaVuSans-Bold-72" transform="translate(83.007812 0)"/>
     <use xlink:href="#DejaVuSans-Bold-61" transform="translate(132.324219 0)"/>
     <use xlink:href="#DejaVuSans-Bold-66" transform="translate(199.804688 0)"/>
     <use xlink:href="#DejaVuSans-Bold-74" transform="translate(243.310547 0)"/>
     <use xlink:href="#DejaVuSans-Bold-2d" transform="translate(291.113281 0)"/>
     <use xlink:href="#DejaVuSans-Bold-46" transform="translate(332.617188 0)"/>
     <use xlink:href="#DejaVuSans-Bold-69" transform="translate(400.927734 0)"/>
     <use xlink:href="#DejaVuSans-Bold-6e" transform="translate(435.205078 0)"/>
     <use xlink:href="#DejaVuSans-Bold-61" transform="translate(506.396484 0)"/>
     <use xlink:href="#DejaVuSans-Bold-6c" transform="translate(573.876953 0)"/>
     <use xlink:href="#DejaVuSans-Bold-20" transform="translate(608.154297 0)"/>
     <use xlink:href="#DejaVuSans-Bold-53" transform="translate(642.96875 0)"/>
     <use xlink:href="#DejaVuSans-Bold-69" transform="translate(714.990234 0)"/>
     <use xlink:href="#DejaVuSans-Bold-6d" transform="translate(749.267578 0)"/>
     <use xlink:href="#DejaVuSans-Bold-69" transform="translate(853.466797 0)"/>
     <use xlink:href="#DejaVuSans-Bold-6c" transform="translate(887.744141 0)"/>
     <use xlink:href="#DejaVuSans-Bold-61" transform="translate(922.021484 0)"/>
     <use xlink:href="#DejaVuSans-Bold-72" transform="translate(989.501953 0)"/>
     <use xlink:href="#DejaVuSans-Bold-69" transform="translate(1038.818359 0)"/>
     <use xlink:href="#DejaVuSans-Bold-74" transform="translate(1073.095703 0)"/>
     <use xlink:href="#DejaVuSans-Bold-79" transform="translate(1120.898438 0)"/>
     <use xlink:href="#DejaVuSans-Bold-3a" transform="translate(1186.083984 0)"/>
     <use xlink:href="#DejaVuSans-Bold-20" transform="translate(1226.074219 0)"/>
     <use xlink:href="#DejaVuSans-Bold-34" transform="translate(1260.888672 0)"/>
     <use xlink:href="#DejaVuSans-Bold-30" transform="translate(1330.46875 0)"/>
     <use xlink:href="#DejaVuSans-Bold-2e" transform="translate(1400.048828 0)"/>
     <use xlink:href="#DejaVuSans-Bold-31" transform="translate(1438.037109 0)"/>
     <use xlink:href="#DejaVuSans-Bold-25" transform="translate(1507.617188 0)"/>
    </g>
    <!--  -->
    <g transform="translate(529.245362 377.778937) scale(0.11 -0.11)"/>
    <!-- Word Count Change: +36.9% -->
    <g transform="translate(529.245362 390.096531) scale(0.11 -0.11)">
     <defs>
      <path id="DejaVuSans-Bold-68" d="M 4056 2131 
L 4056 0 
L 2931 0 
L 2931 347 
L 2931 1625 
Q 2931 2084 2911 2256 
Q 2891 2428 2841 2509 
Q 2775 2619 2662 2680 
Q 2550 2741 2406 2741 
Q 2056 2741 1856 2470 
Q 1656 2200 1656 1722 
L 1656 0 
L 538 0 
L 538 4863 
L 1656 4863 
L 1656 2988 
Q 1909 3294 2193 3439 
Q 2478 3584 2822 3584 
Q 3428 3584 3742 3212 
Q 4056 2841 4056 2131 
z
" transform="scale(0.015625)"/>
      <path id="DejaVuSans-Bold-2b" d="M 3053 4013 
L 3053 2375 
L 4684 2375 
L 4684 1638 
L 3053 1638 
L 3053 0 
L 2309 0 
L 2309 1638 
L 678 1638 
L 678 2375 
L 2309 2375 
L 2309 4013 
L 3053 4013 
z
" transform="scale(0.015625)"/>
      <path id="DejaVuSans-Bold-33" d="M 2981 2516 
Q 3453 2394 3698 2092 
Q 3944 1791 3944 1325 
Q 3944 631 3412 270 
Q 2881 -91 1863 -91 
Q 1503 -91 1142 -33 
Q 781 25 428 141 
L 428 1069 
Q 766 900 1098 814 
Q 1431 728 1753 728 
Q 2231 728 2486 893 
Q 2741 1059 2741 1369 
Q 2741 1688 2480 1852 
Q 2219 2016 1709 2016 
L 1228 2016 
L 1228 2791 
L 1734 2791 
Q 2188 2791 2409 2933 
Q 2631 3075 2631 3366 
Q 2631 3634 2415 3781 
Q 2200 3928 1806 3928 
Q 1516 3928 1219 3862 
Q 922 3797 628 3669 
L 628 4550 
Q 984 4650 1334 4700 
Q 1684 4750 2022 4750 
Q 2931 4750 3382 4451 
Q 3834 4153 3834 3553 
Q 3834 3144 3618 2883 
Q 3403 2622 2981 2516 
z
" transform="scale(0.015625)"/>
      <path id="DejaVuSans-Bold-36" d="M 2316 2303 
Q 2000 2303 1842 2098 
Q 1684 1894 1684 1484 
Q 1684 1075 1842 870 
Q 2000 666 2316 666 
Q 2634 666 2792 870 
Q 2950 1075 2950 1484 
Q 2950 1894 2792 2098 
Q 2634 2303 2316 2303 
z
M 3803 4544 
L 3803 3681 
Q 3506 3822 3243 3889 
Q 2981 3956 2731 3956 
Q 2194 3956 1894 3657 
Q 1594 3359 1544 2772 
Q 1750 2925 1990 3001 
Q 2231 3078 2516 3078 
Q 3231 3078 3670 2659 
Q 4109 2241 4109 1563 
Q 4109 813 3618 361 
Q 3128 -91 2303 -91 
Q 1394 -91 895 523 
Q 397 1138 397 2266 
Q 397 3422 980 4083 
Q 1563 4744 2578 4744 
Q 2900 4744 3203 4694 
Q 3506 4644 3803 4544 
z
" transform="scale(0.015625)"/>
      <path id="DejaVuSans-Bold-39" d="M 641 103 
L 641 966 
Q 928 831 1190 764 
Q 1453 697 1709 697 
Q 2247 697 2547 995 
Q 2847 1294 2900 1881 
Q 2688 1725 2447 1647 
Q 2206 1569 1925 1569 
Q 1209 1569 770 1986 
Q 331 2403 331 3084 
Q 331 3838 820 4291 
Q 1309 4744 2131 4744 
Q 3044 4744 3544 4128 
Q 4044 3513 4044 2388 
Q 4044 1231 3459 570 
Q 2875 -91 1856 -91 
Q 1528 -91 1228 -42 
Q 928 6 641 103 
z
M 2125 2350 
Q 2441 2350 2600 2554 
Q 2759 2759 2759 3169 
Q 2759 3575 2600 3781 
Q 2441 3988 2125 3988 
Q 1809 3988 1650 3781 
Q 1491 3575 1491 3169 
Q 1491 2759 1650 2554 
Q 1809 2350 2125 2350 
z
" transform="scale(0.015625)"/>
     </defs>
     <use xlink:href="#DejaVuSans-Bold-57"/>
     <use xlink:href="#DejaVuSans-Bold-6f" transform="translate(106.677734 0)"/>
     <use xlink:href="#DejaVuSans-Bold-72" transform="translate(175.378906 0)"/>
     <use xlink:href="#DejaVuSans-Bold-64" transform="translate(224.695312 0)"/>
     <use xlink:href="#DejaVuSans-Bold-20" transform="translate(296.277344 0)"/>
     <use xlink:href="#DejaVuSans-Bold-43" transform="translate(331.091797 0)"/>
     <use xlink:href="#DejaVuSans-Bold-6f" transform="translate(404.480469 0)"/>
     <use xlink:href="#DejaVuSans-Bold-75" transform="translate(473.181641 0)"/>
     <use xlink:href="#DejaVuSans-Bold-6e" transform="translate(544.373047 0)"/>
     <use xlink:href="#DejaVuSans-Bold-74" transform="translate(615.564453 0)"/>
     <use xlink:href="#DejaVuSans-Bold-20" transform="translate(663.367188 0)"/>
     <use xlink:href="#DejaVuSans-Bold-43" transform="translate(698.181641 0)"/>
     <use xlink:href="#DejaVuSans-Bold-68" transform="translate(771.570312 0)"/>
     <use xlink:href="#DejaVuSans-Bold-61" transform="translate(842.761719 0)"/>
     <use xlink:href="#DejaVuSans-Bold-6e" transform="translate(910.242188 0)"/>
     <use xlink:href="#DejaVuSans-Bold-67" transform="translate(981.433594 0)"/>
     <use xlink:href="#DejaVuSans-Bold-65" transform="translate(1053.015625 0)"/>
     <use xlink:href="#DejaVuSans-Bold-3a" transform="translate(1120.837891 0)"/>
     <use xlink:href="#DejaVuSans-Bold-20" transform="translate(1160.828125 0)"/>
     <use xlink:href="#DejaVuSans-Bold-2b" transform="translate(1195.642578 0)"/>
     <use xlink:href="#DejaVuSans-Bold-33" transform="translate(1279.431641 0)"/>
     <use xlink:href="#DejaVuSans-Bold-36" transform="translate(1349.011719 0)"/>
     <use xlink:href="#DejaVuSans-Bold-2e" transform="translate(1418.591797 0)"/>
     <use xlink:href="#DejaVuSans-Bold-39" transform="translate(1456.580078 0)"/>
     <use xlink:href="#DejaVuSans-Bold-25" transform="translate(1526.160156 0)"/>
    </g>
    <!--  -->
    <g transform="translate(529.245362 402.500062) scale(0.11 -0.11)"/>
    <!-- Total Sentences: 130 -->
    <g transform="translate(529.245362 414.817656) scale(0.11 -0.11)">
     <defs>
      <path id="DejaVuSans-Bold-54" d="M 31 4666 
L 4331 4666 
L 4331 3756 
L 2784 3756 
L 2784 0 
L 1581 0 
L 1581 3756 
L 31 3756 
L 31 4666 
z
" transform="scale(0.015625)"/>
     </defs>
     <use xlink:href="#DejaVuSans-Bold-54"/>
     <use xlink:href="#DejaVuSans-Bold-6f" transform="translate(54.962891 0)"/>
     <use xlink:href="#DejaVuSans-Bold-74" transform="translate(123.664062 0)"/>
     <use xlink:href="#DejaVuSans-Bold-61" transform="translate(171.466797 0)"/>
     <use xlink:href="#DejaVuSans-Bold-6c" transform="translate(238.947266 0)"/>
     <use xlink:href="#DejaVuSans-Bold-20" transform="translate(273.224609 0)"/>
     <use xlink:href="#DejaVuSans-Bold-53" transform="translate(308.039062 0)"/>
     <use xlink:href="#DejaVuSans-Bold-65" transform="translate(380.060547 0)"/>
     <use xlink:href="#DejaVuSans-Bold-6e" transform="translate(447.882812 0)"/>
     <use xlink:href="#DejaVuSans-Bold-74" transform="translate(519.074219 0)"/>
     <use xlink:href="#DejaVuSans-Bold-65" transform="translate(566.876953 0)"/>
     <use xlink:href="#DejaVuSans-Bold-6e" transform="translate(634.699219 0)"/>
     <use xlink:href="#DejaVuSans-Bold-63" transform="translate(705.890625 0)"/>
     <use xlink:href="#DejaVuSans-Bold-65" transform="translate(765.167969 0)"/>
     <use xlink:href="#DejaVuSans-Bold-73" transform="translate(832.990234 0)"/>
     <use xlink:href="#DejaVuSans-Bold-3a" transform="translate(892.511719 0)"/>
     <use xlink:href="#DejaVuSans-Bold-20" transform="translate(932.501953 0)"/>
     <use xlink:href="#DejaVuSans-Bold-31" transform="translate(967.316406 0)"/>
     <use xlink:href="#DejaVuSans-Bold-33" transform="translate(1036.896484 0)"/>
     <use xlink:href="#DejaVuSans-Bold-30" transform="translate(1106.476562 0)"/>
    </g>
    <!--  -->
    <g transform="translate(529.245362 427.13525) scale(0.11 -0.11)"/>
    <!-- Analysis Date: 2025-10-25 -->
    <g transform="translate(529.245362 439.452844) scale(0.11 -0.11)">
     <defs>
      <path id="DejaVuSans-Bold-41" d="M 3419 850 
L 1538 850 
L 1241 0 
L 31 0 
L 1759 4666 
L 3194 4666 
L 4922 0 
L 3713 0 
L 3419 850 
z
M 1838 1716 
L 3116 1716 
L 2478 3572 
L 1838 1716 
z
" transform="scale(0.015625)"/>
      <path id="DejaVuSans-Bold-32" d="M 1844 884 
L 3897 884 
L 3897 0 
L 506 0 
L 506 884 
L 2209 2388 
Q 2438 2594 2547 2791 
Q 2656 2988 2656 3200 
Q 2656 3528 2436 3728 
Q 2216 3928 1850 3928 
Q 1569 3928 1234 3808 
Q 900 3688 519 3450 
L 519 4475 
Q 925 4609 1322 4679 
Q 1719 4750 2100 4750 
Q 2938 4750 3402 4381 
Q 3866 4013 3866 3353 
Q 3866 2972 3669 2642 
Q 3472 2313 2841 1759 
L 1844 884 
z
" transform="scale(0.015625)"/>
      <path id="DejaVuSans-Bold-35" d="M 678 4666 
L 3669 4666 
L 3669 3781 
L 1638 3781 
L 1638 3059 
Q 1775 3097 1914 3117 
Q 2053 3138 2203 3138 
Q 3056 3138 3531 2711 
Q 4006 2284 4006 1522 
Q 4006 766 3489 337 
Q 2972 -91 2053 -91 
Q 1656 -91 1267 -14 
Q 878 63 494 219 
L 494 1166 
Q 875 947 1217 837 
Q 1559 728 1863 728 
Q 2300 728 2551 942 
Q 2803 1156 2803 1522 
Q 2803 1891 2551 2103 
Q 2300 2316 1863 2316 
Q 1603 2316 1309 2248 
Q 1016 2181 678 2041 
L 678 4666 
z
" transform="scale(0.015625)"/>
     </defs>
     <use xlink:href="#DejaVuSans-Bold-41"/>
     <use xlink:href="#DejaVuSans-Bold-6e" transform="translate(77.392578 0)"/>
     <use xlink:href="#DejaVuSans-Bold-61" transform="translate(148.583984 0)"/>
     <use xlink:href="#DejaVuSans-Bold-6c" transform="translate(216.064453 0)"/>
     <use xlink:href="#DejaVuSans-Bold-79" transform="translate(250.341797 0)"/>
     <use xlink:href="#DejaVuSans-Bold-73" transform="translate(315.527344 0)"/>
     <use xlink:href="#DejaVuSans-Bold-69" transform="translate(375.048828 0)"/>
     <use xlink:href="#DejaVuSans-Bold-73" transform="translate(409.326172 0)"/>
     <use xlink:href="#DejaVuSans-Bold-20" transform="translate(468.847656 0)"/>
     <use xlink:href="#DejaVuSans-Bold-44" transform="translate(503.662109 0)"/>
     <use xlink:href="#DejaVuSans-Bold-61" transform="translate(586.669922 0)"/>
     <use xlink:href="#DejaVuSans-Bold-74" transform="translate(654.150391 0)"/>
     <use xlink:href="#DejaVuSans-Bold-65" transform="translate(701.953125 0)"/>
     <use xlink:href="#DejaVuSans-Bold-3a" transform="translate(769.775391 0)"/>
     <use xlink:href="#DejaVuSans-Bold-20" transform="translate(809.765625 0)"/>
     <use xlink:href="#DejaVuSans-Bold-32" transform="translate(844.580078 0)"/>
     <use xlink:href="#DejaVuSans-Bold-30" transform="translate(914.160156 0)"/>
     <use xlink:href="#DejaVuSans-Bold-32" transform="translate(983.740234 0)"/>
     <use xlink:href="#DejaVuSans-Bold-35" transform="translate(1053.320312 0)"/>
     <use xlink:href="#DejaVuSans-Bold-2d" transform="translate(1122.900391 0)"/>
     <use xlink:href="#DejaVuSans-Bold-31" transform="translate(1164.404297 0)"/>
     <use xlink:href="#DejaVuSans-Bold-30" transform="translate(1233.984375 0)"/>
     <use xlink:href="#DejaVuSans-Bold-2d" transform="translate(1303.564453 0)"/>
     <use xlink:href="#DejaVuSans-Bold-32" transform="translate(1345.068359 0)"/>
     <use xlink:href="#DejaVuSans-Bold-35" transform="translate(1414.648438 0)"/>
    </g>
   </g>
   <g id="text_44">
    <!-- Summary Statistics -->
    <g transform="translate(605.692111 304.36) scale(0.12 -0.12)">
     <use xlink:href="#DejaVuSans-Bold-53"/>
     <use xlink:href="#DejaVuSans-Bold-75" transform="translate(72.021484 0)"/>
     <use xlink:href="#DejaVuSans-Bold-6d" transform="translate(143.212891 0)"/>
     <use xlink:href="#DejaVuSans-Bold-6d" transform="translate(247.412109 0)"/>
     <use xlink:href="#DejaVuSans-Bold-61" transform="translate(351.611328 0)"/>
     <use xlink:href="#DejaVuSans-Bold-72" transform="translate(419.091797 0)"/>
     <use xlink:href="#DejaVuSans-Bold-79" transform="translate(468.408203 0)"/>
     <use xlink:href="#DejaVuSans-Bold-20" transform="translate(533.59375 0)"/>
     <use xlink:href="#DejaVuSans-Bold-53" transform="translate(568.408203 0)"/>
     <use xlink:href="#DejaVuSans-Bold-74" transform="translate(640.429688 0)"/>
     <use xlink:href="#DejaVuSans-Bold-61" transform="translate(688.232422 0)"/>
     <use xlink:href="#DejaVuSans-Bold-74" transform="translate(755.712891 0)"/>
     <use xlink:href="#DejaVuSans-Bold-69" transform="translate(803.515625 0)"/>
     <use xlink:href="#DejaVuSans-Bold-73" transform="translate(837.792969 0)"/>
     <use xlink:href="#DejaVuSans-Bold-74" transform="translate(897.314453 0)"/>
     <use xlink:href="#DejaVuSans-Bold-69" transform="translate(945.117188 0)"/>
     <use xlink:href="#DejaVuSans-Bold-63" transform="translate(979.394531 0)"/>
     <use xlink:href="#DejaVuSans-Bold-73" transform="translate(1038.671875 0)"/>
    </g>
   </g>
  </g>
  <g id="text_45">
   <!-- Content Analysis Summary - crash-course-in-ai-collaboration -->
   <g transform="translate(188.20375 17.837812) scale(0.14 -0.14)">
    <defs>
     <path id="DejaVuSans-Bold-62" d="M 2400 722 
Q 2759 722 2948 984 
Q 3138 1247 3138 1747 
Q 3138 2247 2948 2509 
Q 2759 2772 2400 2772 
Q 2041 2772 1848 2508 
Q 1656 2244 1656 1747 
Q 1656 1250 1848 986 
Q 2041 722 2400 722 
z
M 1656 2988 
Q 1888 3294 2169 3439 
Q 2450 3584 2816 3584 
Q 3463 3584 3878 3070 
Q 4294 2556 4294 1747 
Q 4294 938 3878 423 
Q 3463 -91 2816 -91 
Q 2450 -91 2169 54 
Q 1888 200 1656 506 
L 1656 0 
L 538 0 
L 538 4863 
L 1656 4863 
L 1656 2988 
z
" transform="scale(0.015625)"/>
    </defs>
    <use xlink:href="#DejaVuSans-Bold-43"/>
    <use xlink:href="#DejaVuSans-Bold-6f" transform="translate(73.388672 0)"/>
    <use xlink:href="#DejaVuSans-Bold-6e" transform="translate(142.089844 0)"/>
    <use xlink:href="#DejaVuSans-Bold-74" transform="translate(213.28125 0)"/>
    <use xlink:href="#DejaVuSans-Bold-65" transform="translate(261.083984 0)"/>
    <use xlink:href="#DejaVuSans-Bold-6e" transform="translate(328.90625 0)"/>
    <use xlink:href="#DejaVuSans-Bold-74" transform="translate(400.097656 0)"/>
    <use xlink:href="#DejaVuSans-Bold-20" transform="translate(447.900391 0)"/>
    <use xlink:href="#DejaVuSans-Bold-41" transform="translate(482.714844 0)"/>
    <use xlink:href="#DejaVuSans-Bold-6e" transform="translate(560.107422 0)"/>
    <use xlink:href="#DejaVuSans-Bold-61" transform="translate(631.298828 0)"/>
    <use xlink:href="#DejaVuSans-Bold-6c" transform="translate(698.779297 0)"/>
    <use xlink:href="#DejaVuSans-Bold-79" transform="translate(733.056641 0)"/>
    <use xlink:href="#DejaVuSans-Bold-73" transform="translate(798.242188 0)"/>
    <use xlink:href="#DejaVuSans-Bold-69" transform="translate(857.763672 0)"/>
    <use xlink:href="#DejaVuSans-Bold-73" transform="translate(892.041016 0)"/>
    <use xlink:href="#DejaVuSans-Bold-20" transform="translate(951.5625 0)"/>
    <use xlink:href="#DejaVuSans-Bold-53" transform="translate(986.376953 0)"/>
    <use xlink:href="#DejaVuSans-Bold-75" transform="translate(1058.398438 0)"/>
    <use xlink:href="#DejaVuSans-Bold-6d" transform="translate(1129.589844 0)"/>
    <use xlink:href="#DejaVuSans-Bold-6d" transform="translate(1233.789062 0)"/>
    <use xlink:href="#DejaVuSans-Bold-61" transform="translate(1337.988281 0)"/>
    <use xlink:href="#DejaVuSans-Bold-72" transform="translate(1405.46875 0)"/>
    <use xlink:href="#DejaVuSans-Bold-79" transform="translate(1454.785156 0)"/>
    <use xlink:href="#DejaVuSans-Bold-20" transform="translate(1519.970703 0)"/>
    <use xlink:href="#DejaVuSans-Bold-2d" transform="translate(1554.785156 0)"/>
    <use xlink:href="#DejaVuSans-Bold-20" transform="translate(1596.289062 0)"/>
    <use xlink:href="#DejaVuSans-Bold-63" transform="translate(1631.103516 0)"/>
    <use xlink:href="#DejaVuSans-Bold-72" transform="translate(1690.380859 0)"/>
    <use xlink:href="#DejaVuSans-Bold-61" transform="translate(1739.697266 0)"/>
    <use xlink:href="#DejaVuSans-Bold-73" transform="translate(1807.177734 0)"/>
    <use xlink:href="#DejaVuSans-Bold-68" transform="translate(1866.699219 0)"/>
    <use xlink:href="#DejaVuSans-Bold-2d" transform="translate(1937.890625 0)"/>
    <use xlink:href="#DejaVuSans-Bold-63" transform="translate(1979.394531 0)"/>
    <use xlink:href="#DejaVuSans-Bold-6f" transform="translate(2038.671875 0)"/>
    <use xlink:href="#DejaVuSans-Bold-75" transform="translate(2107.373047 0)"/>
    <use xlink:href="#DejaVuSans-Bold-72" transform="translate(2178.564453 0)"/>
    <use xlink:href="#DejaVuSans-Bold-73" transform="translate(2227.880859 0)"/>
    <use xlink:href="#DejaVuSans-Bold-65" transform="translate(2287.402344 0)"/>
    <use xlink:href="#DejaVuSans-Bold-2d" transform="translate(2355.224609 0)"/>
    <use xlink:href="#DejaVuSans-Bold-69" transform="translate(2396.728516 0)"/>
    <use xlink:href="#DejaVuSans-Bold-6e" transform="translate(2431.005859 0)"/>
    <use xlink:href="#DejaVuSans-Bold-2d" transform="translate(2502.197266 0)"/>
    <use xlink:href="#DejaVuSans-Bold-61" transform="translate(2543.701172 0)"/>
    <use xlink:href="#DejaVuSans-Bold-69" transform="translate(2611.181641 0)"/>
    <use xlink:href="#DejaVuSans-Bold-2d" transform="translate(2645.458984 0)"/>
    <use xlink:href="#DejaVuSans-Bold-63" transform="translate(2686.962891 0)"/>
    <use xlink:href="#DejaVuSans-Bold-6f" transform="translate(2746.240234 0)"/>
    <use xlink:href="#DejaVuSans-Bold-6c" transform="translate(2814.941406 0)"/>
    <use xlink:href="#DejaVuSans-Bold-6c" transform="translate(2849.21875 0)"/>
    <use xlink:href="#DejaVuSans-Bold-61" transform="translate(2883.496094 0)"/>
    <use xlink:href="#DejaVuSans-Bold-62" transform="translate(2950.976562 0)"/>
    <use xlink:href="#DejaVuSans-Bold-6f" transform="translate(3022.558594 0)"/>
    <use xlink:href="#DejaVuSans-Bold-72" transform="translate(3091.259766 0)"/>
    <use xlink:href="#DejaVuSans-Bold-61" transform="translate(3140.576172 0)"/>
    <use xlink:href="#DejaVuSans-Bold-74" transform="translate(3208.056641 0)"/>
    <use xlink:href="#DejaVuSans-Bold-69" transform="translate(3255.859375 0)"/>
    <use xlink:href="#DejaVuSans-Bold-6f" transform="translate(3290.136719 0)"/>
    <use xlink:href="#DejaVuSans-Bold-6e" transform="translate(3358.837891 0)"/>
   </g>
  </g>
 </g>
 <defs>
  <clipPath id="pae2e940775">
   <rect x="493.661096" y="47.04" width="355.842654" height="219.36"/>
  </clipPath>
  <clipPath id="p54006dfb01">
   <rect x="104.64375" y="310.36" width="355.842654" height="219.36"/>
  </clipPath>
 </defs>
</svg>
